<mxfile host="app.diagrams.net" agent="Mozilla/5.0 (Windows NT 10.0; Win64; x64) AppleWebKit/537.36 (KHTML, like Gecko) Chrome/129.0.0.0 Safari/537.36 Edg/129.0.0.0" version="24.7.17" pages="3">
  <diagram name="Login-Renato" id="03018318-947c-dd8e-b7a3-06fadd420f32">
    <mxGraphModel dx="2672" dy="1760" grid="1" gridSize="10" guides="1" tooltips="1" connect="1" arrows="1" fold="1" page="1" pageScale="1" pageWidth="1100" pageHeight="850" background="none" math="0" shadow="0">
      <root>
        <mxCell id="0" />
        <mxCell id="1" parent="0" />
        <mxCell id="677b7b8949515195-1" value="" style="whiteSpace=wrap;html=1;rounded=0;shadow=0;labelBackgroundColor=none;strokeColor=#000000;strokeWidth=1;fillColor=none;fontFamily=Verdana;fontSize=12;fontColor=#000000;align=center;comic=1;" parent="1" vertex="1">
          <mxGeometry x="30" y="20" width="1070" height="3660" as="geometry" />
        </mxCell>
        <mxCell id="677b7b8949515195-2" value="LOGO" style="whiteSpace=wrap;html=1;rounded=0;shadow=0;labelBackgroundColor=none;strokeWidth=1;fontFamily=Verdana;fontSize=28;align=center;comic=1;" parent="1" vertex="1">
          <mxGeometry x="50" y="30" width="190" height="50" as="geometry" />
        </mxCell>
        <mxCell id="677b7b8949515195-3" value="Search" style="strokeWidth=1;shadow=0;dashed=0;align=center;html=1;shape=mxgraph.mockup.forms.searchBox;strokeColor=#999999;mainText=;strokeColor2=#008cff;fontColor=#666666;fontSize=17;align=left;spacingLeft=3;rounded=0;labelBackgroundColor=none;comic=1;" parent="1" vertex="1">
          <mxGeometry x="845" y="170" width="220" height="30" as="geometry" />
        </mxCell>
        <mxCell id="677b7b8949515195-9" value="" style="line;strokeWidth=1;html=1;rounded=0;shadow=0;labelBackgroundColor=none;fillColor=none;fontFamily=Verdana;fontSize=14;fontColor=#000000;align=center;comic=1;" parent="1" vertex="1">
          <mxGeometry x="20" y="140" width="1060" height="10" as="geometry" />
        </mxCell>
        <mxCell id="677b7b8949515195-10" value="" style="whiteSpace=wrap;html=1;rounded=0;shadow=0;labelBackgroundColor=none;strokeWidth=1;fillColor=none;fontFamily=Verdana;fontSize=12;align=center;comic=1;" parent="1" vertex="1">
          <mxGeometry x="30" y="160" width="1040" height="50" as="geometry" />
        </mxCell>
        <mxCell id="677b7b8949515195-11" value="Section 1" style="text;html=1;points=[];align=left;verticalAlign=top;spacingTop=-4;fontSize=14;fontFamily=Verdana" parent="1" vertex="1">
          <mxGeometry x="310" y="70" width="60" height="20" as="geometry" />
        </mxCell>
        <mxCell id="677b7b8949515195-12" value="Section 2" style="text;html=1;points=[];align=left;verticalAlign=top;spacingTop=-4;fontSize=14;fontFamily=Verdana" parent="1" vertex="1">
          <mxGeometry x="430" y="70" width="60" height="20" as="geometry" />
        </mxCell>
        <mxCell id="677b7b8949515195-14" value="Section 3" style="text;html=1;points=[];align=left;verticalAlign=top;spacingTop=-4;fontSize=14;fontFamily=Verdana" parent="1" vertex="1">
          <mxGeometry x="550" y="70" width="60" height="20" as="geometry" />
        </mxCell>
        <mxCell id="677b7b8949515195-15" value="&lt;div style=&quot;text-align: justify; font-size: 21px;&quot;&gt;Quem sou eu?&lt;/div&gt;" style="whiteSpace=wrap;html=1;rounded=0;shadow=0;labelBackgroundColor=none;strokeWidth=1;fillColor=none;fontFamily=Verdana;fontSize=12;align=center;verticalAlign=top;spacing=10;comic=1;" parent="1" vertex="1">
          <mxGeometry x="140" y="770" width="770" height="210" as="geometry" />
        </mxCell>
        <mxCell id="677b7b8949515195-16" value="" style="verticalLabelPosition=bottom;shadow=0;dashed=0;align=center;html=1;verticalAlign=top;strokeWidth=1;shape=mxgraph.mockup.graphics.simpleIcon;strokeColor=#999999;rounded=0;labelBackgroundColor=none;fontFamily=Verdana;fontSize=14;fontColor=#000000;comic=1;" parent="1" vertex="1">
          <mxGeometry x="30" y="212.5" width="710" height="407.5" as="geometry" />
        </mxCell>
        <mxCell id="qGc1CWyPhhanrBEU4zBu-141" style="edgeStyle=orthogonalEdgeStyle;rounded=0;orthogonalLoop=1;jettySize=auto;html=1;exitX=0.5;exitY=1;exitDx=0;exitDy=0;" edge="1" parent="1" source="677b7b8949515195-25" target="qGc1CWyPhhanrBEU4zBu-98">
          <mxGeometry relative="1" as="geometry">
            <mxPoint x="1300" y="80" as="targetPoint" />
          </mxGeometry>
        </mxCell>
        <mxCell id="677b7b8949515195-25" value="" style="whiteSpace=wrap;html=1;rounded=0;shadow=0;labelBackgroundColor=none;strokeWidth=1;fillColor=none;fontFamily=Verdana;fontSize=12;align=center;comic=1;" parent="1" vertex="1">
          <mxGeometry x="750" y="220" width="220" height="400" as="geometry" />
        </mxCell>
        <mxCell id="677b7b8949515195-44" value="Comece agora seu&amp;nbsp;&lt;div&gt;agendamento&lt;/div&gt;" style="text;html=1;points=[];align=left;verticalAlign=top;spacingTop=-4;fontSize=14;fontFamily=Verdana" parent="1" vertex="1">
          <mxGeometry x="810" y="240" width="170" height="20" as="geometry" />
        </mxCell>
        <mxCell id="677b7b8949515195-45" value="Nome completo:" style="text;html=1;points=[];align=left;verticalAlign=top;spacingTop=-4;fontSize=14;fontFamily=Verdana" parent="1" vertex="1">
          <mxGeometry x="760" y="300" width="170" height="20" as="geometry" />
        </mxCell>
        <mxCell id="677b7b8949515195-47" value="E-mail" style="text;html=1;points=[];align=left;verticalAlign=top;spacingTop=-4;fontSize=14;fontFamily=Verdana" parent="1" vertex="1">
          <mxGeometry x="760" y="390" width="170" height="20" as="geometry" />
        </mxCell>
        <mxCell id="677b7b8949515195-48" value="Senha:" style="text;html=1;points=[];align=left;verticalAlign=top;spacingTop=-4;fontSize=14;fontFamily=Verdana" parent="1" vertex="1">
          <mxGeometry x="760" y="480" width="170" height="20" as="geometry" />
        </mxCell>
        <mxCell id="qGc1CWyPhhanrBEU4zBu-6" value="" style="rounded=1;whiteSpace=wrap;html=1;rotation=90;" vertex="1" parent="1">
          <mxGeometry x="827.5" y="377.5" width="395" height="90" as="geometry" />
        </mxCell>
        <mxCell id="qGc1CWyPhhanrBEU4zBu-8" value="" style="endArrow=none;html=1;rounded=0;entryX=0;entryY=1;entryDx=0;entryDy=0;exitX=1;exitY=0;exitDx=0;exitDy=0;" edge="1" parent="1" source="qGc1CWyPhhanrBEU4zBu-6" target="qGc1CWyPhhanrBEU4zBu-6">
          <mxGeometry width="50" height="50" relative="1" as="geometry">
            <mxPoint x="1005" y="305" as="sourcePoint" />
            <mxPoint x="1055" y="255" as="targetPoint" />
          </mxGeometry>
        </mxCell>
        <mxCell id="qGc1CWyPhhanrBEU4zBu-10" value="" style="endArrow=none;html=1;rounded=0;exitX=1;exitY=1;exitDx=0;exitDy=0;entryX=0;entryY=0;entryDx=0;entryDy=0;" edge="1" parent="1" source="qGc1CWyPhhanrBEU4zBu-6" target="qGc1CWyPhhanrBEU4zBu-6">
          <mxGeometry width="50" height="50" relative="1" as="geometry">
            <mxPoint x="740" y="520" as="sourcePoint" />
            <mxPoint x="790" y="470" as="targetPoint" />
            <Array as="points">
              <mxPoint x="1060" y="240" />
            </Array>
          </mxGeometry>
        </mxCell>
        <mxCell id="qGc1CWyPhhanrBEU4zBu-12" value="" style="rounded=1;whiteSpace=wrap;html=1;" vertex="1" parent="1">
          <mxGeometry x="760" y="330" width="180" height="40" as="geometry" />
        </mxCell>
        <mxCell id="qGc1CWyPhhanrBEU4zBu-13" value="" style="rounded=1;whiteSpace=wrap;html=1;" vertex="1" parent="1">
          <mxGeometry x="760" y="420" width="180" height="40" as="geometry" />
        </mxCell>
        <mxCell id="qGc1CWyPhhanrBEU4zBu-14" value="" style="rounded=1;whiteSpace=wrap;html=1;" vertex="1" parent="1">
          <mxGeometry x="760" y="510" width="180" height="40" as="geometry" />
        </mxCell>
        <mxCell id="qGc1CWyPhhanrBEU4zBu-15" value="" style="rounded=1;whiteSpace=wrap;html=1;" vertex="1" parent="1">
          <mxGeometry x="795" y="580" width="130" height="30" as="geometry" />
        </mxCell>
        <mxCell id="qGc1CWyPhhanrBEU4zBu-16" value="Entrar" style="text;html=1;align=center;verticalAlign=middle;whiteSpace=wrap;rounded=0;" vertex="1" parent="1">
          <mxGeometry x="830" y="580" width="60" height="30" as="geometry" />
        </mxCell>
        <mxCell id="qGc1CWyPhhanrBEU4zBu-18" value="&lt;div style=&quot;text-align: justify&quot;&gt;Gerencie seu agendamento:&lt;br&gt;&lt;br&gt;&lt;/div&gt;" style="whiteSpace=wrap;html=1;rounded=0;shadow=0;labelBackgroundColor=none;strokeWidth=1;fillColor=none;fontFamily=Verdana;fontSize=12;align=center;verticalAlign=top;spacing=10;comic=1;" vertex="1" parent="1">
          <mxGeometry x="30" y="335" width="205" height="180" as="geometry" />
        </mxCell>
        <mxCell id="qGc1CWyPhhanrBEU4zBu-19" value="&lt;h1 style=&quot;margin-top: 0px;&quot;&gt;Heading&lt;/h1&gt;&lt;p&gt;-Lorem ipsum dolor sit amet,&amp;nbsp;&lt;/p&gt;&lt;p&gt;-Consectetur adipisicing elit, sed do eiusmod tempor incididunt ut labore et dolore magna aliqua.&lt;/p&gt;" style="text;html=1;whiteSpace=wrap;overflow=hidden;rounded=0;" vertex="1" parent="1">
          <mxGeometry x="45" y="360" width="180" height="120" as="geometry" />
        </mxCell>
        <mxCell id="qGc1CWyPhhanrBEU4zBu-21" value="Davi Aburjeli" style="shape=umlActor;verticalLabelPosition=bottom;verticalAlign=top;html=1;outlineConnect=0;" vertex="1" parent="1">
          <mxGeometry x="350" y="480" width="70" height="120" as="geometry" />
        </mxCell>
        <mxCell id="XLhhQLwNxboojujIq6jB-10" style="edgeStyle=orthogonalEdgeStyle;rounded=0;orthogonalLoop=1;jettySize=auto;html=1;exitX=0.5;exitY=0;exitDx=0;exitDy=0;entryX=0;entryY=0.5;entryDx=0;entryDy=0;" edge="1" parent="1" source="qGc1CWyPhhanrBEU4zBu-22" target="XLhhQLwNxboojujIq6jB-9">
          <mxGeometry relative="1" as="geometry">
            <mxPoint x="864.1111111111109" y="-496.6666666666667" as="targetPoint" />
          </mxGeometry>
        </mxCell>
        <mxCell id="qGc1CWyPhhanrBEU4zBu-22" value="" style="rounded=1;whiteSpace=wrap;html=1;" vertex="1" parent="1">
          <mxGeometry x="805" y="50" width="120" height="60" as="geometry" />
        </mxCell>
        <mxCell id="qGc1CWyPhhanrBEU4zBu-23" value="Acessar" style="text;html=1;points=[];align=left;verticalAlign=top;spacingTop=-4;fontSize=14;fontFamily=Verdana" vertex="1" parent="1">
          <mxGeometry x="835" y="70" width="60" height="20" as="geometry" />
        </mxCell>
        <mxCell id="qGc1CWyPhhanrBEU4zBu-27" value="" style="rounded=1;whiteSpace=wrap;html=1;" vertex="1" parent="1">
          <mxGeometry x="940" y="50" width="120" height="60" as="geometry" />
        </mxCell>
        <mxCell id="qGc1CWyPhhanrBEU4zBu-144" style="edgeStyle=orthogonalEdgeStyle;rounded=0;orthogonalLoop=1;jettySize=auto;html=1;" edge="1" parent="1" source="qGc1CWyPhhanrBEU4zBu-29" target="qGc1CWyPhhanrBEU4zBu-98">
          <mxGeometry relative="1" as="geometry">
            <Array as="points">
              <mxPoint x="1180" y="80" />
              <mxPoint x="1180" y="325" />
            </Array>
          </mxGeometry>
        </mxCell>
        <mxCell id="qGc1CWyPhhanrBEU4zBu-29" value="Criar conta" style="text;html=1;points=[];align=left;verticalAlign=top;spacingTop=-4;fontSize=14;fontFamily=Verdana" vertex="1" parent="1">
          <mxGeometry x="960" y="70" width="60" height="20" as="geometry" />
        </mxCell>
        <mxCell id="qGc1CWyPhhanrBEU4zBu-30" value="" style="shape=callout;whiteSpace=wrap;html=1;perimeter=calloutPerimeter;" vertex="1" parent="1">
          <mxGeometry x="920" y="730" width="140" height="80" as="geometry" />
        </mxCell>
        <mxCell id="qGc1CWyPhhanrBEU4zBu-31" value="Precisa de ajuda?" style="text;html=1;points=[];align=left;verticalAlign=top;spacingTop=-4;fontSize=14;fontFamily=Verdana" vertex="1" parent="1">
          <mxGeometry x="925" y="750" width="170" height="20" as="geometry" />
        </mxCell>
        <mxCell id="qGc1CWyPhhanrBEU4zBu-34" value="" style="shape=image;html=1;verticalAlign=top;verticalLabelPosition=bottom;labelBackgroundColor=#ffffff;imageAspect=0;aspect=fixed;image=https://cdn4.iconfinder.com/data/icons/miu-black-social-2/60/whatsapp-128.png" vertex="1" parent="1">
          <mxGeometry x="70" y="95" width="40" height="40" as="geometry" />
        </mxCell>
        <mxCell id="qGc1CWyPhhanrBEU4zBu-39" value="" style="shape=image;html=1;verticalAlign=top;verticalLabelPosition=bottom;labelBackgroundColor=#ffffff;imageAspect=0;aspect=fixed;image=https://cdn4.iconfinder.com/data/icons/logos-brands-7/512/instagram_icon-instagram_buttoninstegram-128.png" vertex="1" parent="1">
          <mxGeometry x="197" y="100" width="28" height="28" as="geometry" />
        </mxCell>
        <mxCell id="qGc1CWyPhhanrBEU4zBu-49" value="" style="verticalLabelPosition=bottom;shadow=0;dashed=0;align=center;html=1;verticalAlign=top;strokeWidth=1;shape=mxgraph.mockup.containers.userMale;strokeColor=#666666;strokeColor2=#008cff;" vertex="1" parent="1">
          <mxGeometry x="170" y="1015" width="320" height="260" as="geometry" />
        </mxCell>
        <mxCell id="qGc1CWyPhhanrBEU4zBu-50" value="&lt;h1 style=&quot;margin-top: 0px;&quot;&gt;Davi Aburjeli&lt;/h1&gt;&lt;p&gt;Lorem ipsum dolor sit amet, consectetur adipisicing elit, sed do eiusmod tempor incididunt ut labore et dolore magna aliqua askdmkasmdkasmdkaskdasnhdn2ueduendasjndkasndkjasndkjasnkdjnaskjdnaskjndkasjndkasndkasdk.&lt;/p&gt;" style="text;html=1;whiteSpace=wrap;overflow=hidden;rounded=0;" vertex="1" parent="1">
          <mxGeometry x="150" y="810" width="780" height="120" as="geometry" />
        </mxCell>
        <mxCell id="qGc1CWyPhhanrBEU4zBu-51" value="" style="shape=callout;whiteSpace=wrap;html=1;perimeter=calloutPerimeter;" vertex="1" parent="1">
          <mxGeometry x="925" y="1550" width="140" height="80" as="geometry" />
        </mxCell>
        <mxCell id="qGc1CWyPhhanrBEU4zBu-52" value="Precisa de ajuda?" style="text;html=1;points=[];align=left;verticalAlign=top;spacingTop=-4;fontSize=14;fontFamily=Verdana" vertex="1" parent="1">
          <mxGeometry x="930" y="1560" width="170" height="20" as="geometry" />
        </mxCell>
        <mxCell id="qGc1CWyPhhanrBEU4zBu-53" value="Link" style="shape=rectangle;strokeColor=none;fillColor=none;linkText=;fontSize=17;fontColor=#0000ff;fontStyle=4;html=1;align=center;" vertex="1" parent="1">
          <mxGeometry x="70" y="99" width="150" height="30" as="geometry" />
        </mxCell>
        <mxCell id="qGc1CWyPhhanrBEU4zBu-55" value="&lt;div style=&quot;text-align: justify; font-size: 21px;&quot;&gt;Tratamentos e Especializações (INSTAGRAM)&lt;/div&gt;" style="whiteSpace=wrap;html=1;rounded=0;shadow=0;labelBackgroundColor=none;strokeWidth=1;fillColor=none;fontFamily=Verdana;fontSize=12;align=center;verticalAlign=top;spacing=10;comic=1;" vertex="1" parent="1">
          <mxGeometry x="57.5" y="1370" width="1002.5" height="60" as="geometry" />
        </mxCell>
        <mxCell id="qGc1CWyPhhanrBEU4zBu-69" value="" style="verticalLabelPosition=bottom;shadow=0;dashed=0;align=center;html=1;verticalAlign=top;strokeWidth=1;shape=mxgraph.mockup.containers.videoPlayer;strokeColor=#666666;strokeColor2=#008cff;strokeColor3=#c4c4c4;textColor=#666666;fillColor2=#008cff;barHeight=30;barPos=20;" vertex="1" parent="1">
          <mxGeometry x="240" y="1480" width="620" height="190" as="geometry" />
        </mxCell>
        <mxCell id="qGc1CWyPhhanrBEU4zBu-70" value="" style="verticalLabelPosition=bottom;shadow=0;dashed=0;align=center;html=1;verticalAlign=top;strokeWidth=1;shape=mxgraph.mockup.graphics.simpleIcon;strokeColor=#999999;" vertex="1" parent="1">
          <mxGeometry x="90" y="1730" width="200" height="120" as="geometry" />
        </mxCell>
        <mxCell id="qGc1CWyPhhanrBEU4zBu-73" value="" style="verticalLabelPosition=bottom;shadow=0;dashed=0;align=center;html=1;verticalAlign=top;strokeWidth=1;shape=mxgraph.mockup.graphics.simpleIcon;strokeColor=#999999;" vertex="1" parent="1">
          <mxGeometry x="425" y="1730" width="200" height="120" as="geometry" />
        </mxCell>
        <mxCell id="qGc1CWyPhhanrBEU4zBu-74" value="" style="verticalLabelPosition=bottom;shadow=0;dashed=0;align=center;html=1;verticalAlign=top;strokeWidth=1;shape=mxgraph.mockup.graphics.simpleIcon;strokeColor=#999999;" vertex="1" parent="1">
          <mxGeometry x="760" y="1730" width="200" height="120" as="geometry" />
        </mxCell>
        <mxCell id="qGc1CWyPhhanrBEU4zBu-75" value="&lt;div style=&quot;text-align: justify; font-size: 21px;&quot;&gt;Recursos essenciais para seu atendimento(agendamento online)&lt;/div&gt;" style="whiteSpace=wrap;html=1;rounded=0;shadow=0;labelBackgroundColor=none;strokeWidth=1;fillColor=none;fontFamily=Verdana;fontSize=12;align=center;verticalAlign=top;spacing=10;comic=1;" vertex="1" parent="1">
          <mxGeometry x="190" y="2040" width="730" height="60" as="geometry" />
        </mxCell>
        <mxCell id="qGc1CWyPhhanrBEU4zBu-76" value="&lt;div style=&quot;text-align: justify&quot;&gt;&amp;nbsp; &amp;nbsp; &amp;nbsp; &amp;nbsp; &amp;nbsp; &amp;nbsp; &amp;nbsp; &amp;nbsp; &amp;nbsp; &amp;nbsp; &amp;nbsp; &amp;nbsp; &amp;nbsp; &amp;nbsp; &amp;nbsp;Imagem de um celular&amp;nbsp;&lt;/div&gt;" style="whiteSpace=wrap;html=1;rounded=0;shadow=0;labelBackgroundColor=none;strokeWidth=1;fillColor=none;fontFamily=Verdana;fontSize=12;align=center;verticalAlign=top;spacing=10;comic=1;" vertex="1" parent="1">
          <mxGeometry x="560" y="2260" width="380" height="260" as="geometry" />
        </mxCell>
        <mxCell id="qGc1CWyPhhanrBEU4zBu-77" value="&lt;h1 style=&quot;margin-top: 0px;&quot;&gt;&lt;br&gt;&lt;/h1&gt;&lt;p&gt;Lorem ipsum dolor sit amet, consectetur adipisicing elit, sed do eiusmod tempor incididunt ut labore et dolore magna aliqua.&lt;br&gt;&lt;span style=&quot;background-color: initial;&quot;&gt;Lorem ipsum dolor sit amet, consectetur adipisicing elit, sed do eiusmod tempor incididunt ut labore et dolore magna aliqua.&lt;/span&gt;&lt;br&gt;&lt;/p&gt;" style="text;html=1;whiteSpace=wrap;overflow=hidden;rounded=0;" vertex="1" parent="1">
          <mxGeometry x="130" y="2310" width="320" height="120" as="geometry" />
        </mxCell>
        <mxCell id="qGc1CWyPhhanrBEU4zBu-78" value="" style="verticalLabelPosition=bottom;verticalAlign=top;html=1;shadow=0;dashed=0;strokeWidth=1;shape=mxgraph.android.phone2;strokeColor=#006EAF;fillColor=#1ba1e2;fontColor=#ffffff;" vertex="1" parent="1">
          <mxGeometry x="600" y="2280" width="120" height="220" as="geometry" />
        </mxCell>
        <mxCell id="qGc1CWyPhhanrBEU4zBu-79" value="" style="rounded=1;whiteSpace=wrap;html=1;" vertex="1" parent="1">
          <mxGeometry x="210" y="2450" width="120" height="60" as="geometry" />
        </mxCell>
        <mxCell id="qGc1CWyPhhanrBEU4zBu-80" value="Criar conta" style="text;html=1;points=[];align=left;verticalAlign=top;spacingTop=-4;fontSize=14;fontFamily=Verdana" vertex="1" parent="1">
          <mxGeometry x="230" y="2470" width="60" height="20" as="geometry" />
        </mxCell>
        <mxCell id="qGc1CWyPhhanrBEU4zBu-82" value="Baixe nosso aplicativo" style="rounded=1;whiteSpace=wrap;html=1;" vertex="1" parent="1">
          <mxGeometry x="770" y="2430" width="120" height="60" as="geometry" />
        </mxCell>
        <mxCell id="qGc1CWyPhhanrBEU4zBu-83" value="&lt;h1 style=&quot;margin-top: 0px;&quot;&gt;Heading&lt;/h1&gt;&lt;p&gt;Lorem ipsum dolor sit amet, consectetur adipisicing elit, sed do eiusmod tempor incididunt ut labore et dolore magna aliqua.&lt;/p&gt;" style="text;html=1;whiteSpace=wrap;overflow=hidden;rounded=0;" vertex="1" parent="1">
          <mxGeometry x="610" y="2305" width="95" height="170" as="geometry" />
        </mxCell>
        <mxCell id="qGc1CWyPhhanrBEU4zBu-84" value="" style="line;strokeWidth=2;html=1;" vertex="1" parent="1">
          <mxGeometry x="597.5" y="2150" width="120" height="400" as="geometry" />
        </mxCell>
        <mxCell id="qGc1CWyPhhanrBEU4zBu-86" value="&lt;div style=&quot;text-align: justify&quot;&gt;&lt;br&gt;&lt;/div&gt;" style="whiteSpace=wrap;html=1;rounded=0;shadow=0;labelBackgroundColor=none;strokeWidth=1;fillColor=none;fontFamily=Verdana;fontSize=12;align=center;verticalAlign=top;spacing=10;comic=1;" vertex="1" parent="1">
          <mxGeometry x="100" y="2570" width="420" height="190" as="geometry" />
        </mxCell>
        <mxCell id="qGc1CWyPhhanrBEU4zBu-88" value="&lt;div style=&quot;text-align: justify&quot;&gt;FAÇA SEU ORÇAMENTO&lt;/div&gt;" style="whiteSpace=wrap;html=1;rounded=0;shadow=0;labelBackgroundColor=none;strokeWidth=1;fillColor=none;fontFamily=Verdana;fontSize=12;align=center;verticalAlign=top;spacing=10;comic=1;" vertex="1" parent="1">
          <mxGeometry x="85" y="2810" width="440" height="200" as="geometry" />
        </mxCell>
        <mxCell id="qGc1CWyPhhanrBEU4zBu-92" value="Text" style="text;html=1;align=center;verticalAlign=middle;whiteSpace=wrap;rounded=0;" vertex="1" parent="1">
          <mxGeometry x="370" y="2410" width="60" height="30" as="geometry" />
        </mxCell>
        <mxCell id="qGc1CWyPhhanrBEU4zBu-94" value="&lt;span style=&quot;text-align: left;&quot;&gt;Lorem ipsum dolor sit amet, consectetur adipisicing elit, sed do eiusmod tempor incididunt ut labore et dolore magna aliqua.&lt;/span&gt;" style="text;html=1;align=center;verticalAlign=middle;whiteSpace=wrap;rounded=0;" vertex="1" parent="1">
          <mxGeometry x="300" y="2150" width="470" height="30" as="geometry" />
        </mxCell>
        <mxCell id="qGc1CWyPhhanrBEU4zBu-96" value="" style="endArrow=none;html=1;rounded=0;exitX=0;exitY=0;exitDx=0;exitDy=0;entryX=1;entryY=1;entryDx=0;entryDy=0;" edge="1" parent="1" source="qGc1CWyPhhanrBEU4zBu-86" target="qGc1CWyPhhanrBEU4zBu-86">
          <mxGeometry width="50" height="50" relative="1" as="geometry">
            <mxPoint x="370" y="2670" as="sourcePoint" />
            <mxPoint x="420" y="2620" as="targetPoint" />
          </mxGeometry>
        </mxCell>
        <mxCell id="qGc1CWyPhhanrBEU4zBu-97" value="" style="endArrow=none;html=1;rounded=0;entryX=1;entryY=0;entryDx=0;entryDy=0;exitX=0;exitY=1;exitDx=0;exitDy=0;" edge="1" parent="1" source="qGc1CWyPhhanrBEU4zBu-99" target="qGc1CWyPhhanrBEU4zBu-86">
          <mxGeometry width="50" height="50" relative="1" as="geometry">
            <mxPoint x="370" y="2670" as="sourcePoint" />
            <mxPoint x="420" y="2620" as="targetPoint" />
          </mxGeometry>
        </mxCell>
        <mxCell id="qGc1CWyPhhanrBEU4zBu-98" value="&lt;div style=&quot;text-align: justify&quot;&gt;&lt;br&gt;&lt;/div&gt;" style="whiteSpace=wrap;html=1;rounded=0;shadow=0;labelBackgroundColor=none;strokeWidth=1;fillColor=none;fontFamily=Verdana;fontSize=12;align=center;verticalAlign=top;spacing=10;comic=1;" vertex="1" parent="1">
          <mxGeometry x="1390" y="20" width="950" height="720" as="geometry" />
        </mxCell>
        <mxCell id="qGc1CWyPhhanrBEU4zBu-100" value="" style="endArrow=none;html=1;rounded=0;entryX=1;entryY=0;entryDx=0;entryDy=0;exitX=0;exitY=1;exitDx=0;exitDy=0;" edge="1" parent="1" source="qGc1CWyPhhanrBEU4zBu-86" target="qGc1CWyPhhanrBEU4zBu-99">
          <mxGeometry width="50" height="50" relative="1" as="geometry">
            <mxPoint x="100" y="2760" as="sourcePoint" />
            <mxPoint x="520" y="2570" as="targetPoint" />
          </mxGeometry>
        </mxCell>
        <mxCell id="qGc1CWyPhhanrBEU4zBu-99" value="" style="shape=image;html=1;verticalAlign=top;verticalLabelPosition=bottom;labelBackgroundColor=#ffffff;imageAspect=0;aspect=fixed;image=https://cdn4.iconfinder.com/data/icons/logos-brands-7/512/instagram_icon-instagram_buttoninstegram-128.png" vertex="1" parent="1">
          <mxGeometry x="225" y="2576" width="184" height="184" as="geometry" />
        </mxCell>
        <mxCell id="qGc1CWyPhhanrBEU4zBu-101" value="&lt;span style=&quot;text-align: left;&quot;&gt;Lorem ipsum dolor sit amet, consectetur adipisicing elit, sed do eiusmod tempor incididunt ut labore et dolore magna aliqua.&lt;/span&gt;&lt;span style=&quot;text-align: left;&quot;&gt;Lorem ipsum dolor sit amet, consectetur adipisicing elit, sed do eiusmod tempor incididunt ut labore et dolore magna aliqua.&lt;/span&gt;&lt;span style=&quot;text-align: left;&quot;&gt;Lorem ipsum dolor sit amet, consectetur adipisicing elit, sed do eiusmod tempor incididunt ut labore et dolore magna aliqua.&lt;/span&gt;&lt;span style=&quot;text-align: left;&quot;&gt;Lorem ipsum dolor sit amet, consectetur adipisicing elit, sed do eiusmod tempor incididunt ut labore et dolore magna aliqua.&lt;/span&gt;" style="text;html=1;align=center;verticalAlign=middle;whiteSpace=wrap;rounded=0;" vertex="1" parent="1">
          <mxGeometry x="610" y="2620" width="410" height="110" as="geometry" />
        </mxCell>
        <mxCell id="qGc1CWyPhhanrBEU4zBu-102" value="&lt;div style=&quot;text-align: justify&quot;&gt;&lt;br&gt;&lt;/div&gt;" style="whiteSpace=wrap;html=1;rounded=0;shadow=0;labelBackgroundColor=none;strokeWidth=1;fillColor=none;fontFamily=Verdana;fontSize=12;align=center;verticalAlign=top;spacing=10;comic=1;" vertex="1" parent="1">
          <mxGeometry x="590" y="2810" width="420" height="190" as="geometry" />
        </mxCell>
        <mxCell id="qGc1CWyPhhanrBEU4zBu-104" value="" style="endArrow=none;html=1;rounded=0;exitX=-0.002;exitY=0.064;exitDx=0;exitDy=0;exitPerimeter=0;entryX=1;entryY=1;entryDx=0;entryDy=0;" edge="1" parent="1" source="qGc1CWyPhhanrBEU4zBu-102" target="qGc1CWyPhhanrBEU4zBu-102">
          <mxGeometry width="50" height="50" relative="1" as="geometry">
            <mxPoint x="710" y="2760" as="sourcePoint" />
            <mxPoint x="760" y="2710" as="targetPoint" />
          </mxGeometry>
        </mxCell>
        <mxCell id="qGc1CWyPhhanrBEU4zBu-105" value="" style="endArrow=none;html=1;rounded=0;exitX=0;exitY=1;exitDx=0;exitDy=0;entryX=1;entryY=0;entryDx=0;entryDy=0;" edge="1" parent="1" source="qGc1CWyPhhanrBEU4zBu-102" target="qGc1CWyPhhanrBEU4zBu-102">
          <mxGeometry width="50" height="50" relative="1" as="geometry">
            <mxPoint x="710" y="2760" as="sourcePoint" />
            <mxPoint x="760" y="2710" as="targetPoint" />
          </mxGeometry>
        </mxCell>
        <mxCell id="qGc1CWyPhhanrBEU4zBu-106" value="&lt;div style=&quot;text-align: justify&quot;&gt;ACOMAPANHE MINHAS REDES SOCIAS&lt;/div&gt;" style="whiteSpace=wrap;html=1;rounded=0;shadow=0;labelBackgroundColor=none;strokeWidth=1;fillColor=none;fontFamily=Verdana;fontSize=12;align=center;verticalAlign=top;spacing=10;comic=1;" vertex="1" parent="1">
          <mxGeometry x="590" y="2570" width="440" height="200" as="geometry" />
        </mxCell>
        <mxCell id="qGc1CWyPhhanrBEU4zBu-107" value="&lt;h1 style=&quot;margin-top: 0px;&quot;&gt;CANAL DE WPP E DESTAQUE DOS TRATAMENTOS&lt;/h1&gt;&lt;p&gt;Lorem ipsum dolor sit amet, consectetur adipisicing elit, sed do eiusmod tempor incididunt ut labore et dolore magna aliqua.&lt;/p&gt;" style="text;html=1;whiteSpace=wrap;overflow=hidden;rounded=0;" vertex="1" parent="1">
          <mxGeometry x="110" y="2860" width="410" height="120" as="geometry" />
        </mxCell>
        <mxCell id="qGc1CWyPhhanrBEU4zBu-108" value="" style="dashed=0;outlineConnect=0;html=1;align=center;labelPosition=center;verticalLabelPosition=bottom;verticalAlign=top;shape=mxgraph.webicons.whatsapp;fillColor=#4FE238;gradientColor=#138709" vertex="1" parent="1">
          <mxGeometry x="725" y="2835" width="170" height="150" as="geometry" />
        </mxCell>
        <mxCell id="qGc1CWyPhhanrBEU4zBu-109" value="&lt;h1 style=&quot;margin-top: 0px;&quot;&gt;Dúvidas? Fale conosco rsrs&lt;/h1&gt;&lt;p&gt;Lorem ipsum dolor sit amet, consectetur adipisicing elit, sed do eiusmod tempor incididunt ut labore et dolore magna aliqua.&lt;span style=&quot;background-color: initial;&quot;&gt;Lorem ipsum dolor sit amet, consectetur adipisicing elit, sed do eiusmod tempor incididunt ut labore et dolore magna aliqua.&lt;/span&gt;&lt;span style=&quot;background-color: initial;&quot;&gt;Lorem ipsum dolor sit amet, consectetur adipisicing elit, sed do eiusmod tempor incididunt ut labore et dolore magna aliqua.&lt;/span&gt;&lt;span style=&quot;background-color: initial;&quot;&gt;Lorem ipsum dolor sit amet, consectetur adipisicing elit, sed do eiusmod tempor incididunt ut labore et dolore magna aliqua.&lt;/span&gt;&lt;/p&gt;" style="text;html=1;whiteSpace=wrap;overflow=hidden;rounded=0;" vertex="1" parent="1">
          <mxGeometry x="385" y="3070" width="400" height="190" as="geometry" />
        </mxCell>
        <mxCell id="qGc1CWyPhhanrBEU4zBu-110" value="Contato wpp" style="rounded=1;whiteSpace=wrap;html=1;" vertex="1" parent="1">
          <mxGeometry x="498.75" y="3250" width="120" height="60" as="geometry" />
        </mxCell>
        <mxCell id="qGc1CWyPhhanrBEU4zBu-123" style="edgeStyle=orthogonalEdgeStyle;rounded=0;orthogonalLoop=1;jettySize=auto;html=1;exitX=1;exitY=0.5;exitDx=0;exitDy=0;exitPerimeter=0;" edge="1" parent="1" source="qGc1CWyPhhanrBEU4zBu-122">
          <mxGeometry relative="1" as="geometry">
            <mxPoint x="1090" y="3394.818181818181" as="targetPoint" />
          </mxGeometry>
        </mxCell>
        <mxCell id="qGc1CWyPhhanrBEU4zBu-122" value="" style="line;strokeWidth=2;html=1;" vertex="1" parent="1">
          <mxGeometry x="30" y="3390" width="1000" height="10" as="geometry" />
        </mxCell>
        <mxCell id="qGc1CWyPhhanrBEU4zBu-125" value="" style="line;strokeWidth=2;html=1;" vertex="1" parent="1">
          <mxGeometry x="40" y="840" width="1060" height="10" as="geometry" />
        </mxCell>
        <mxCell id="qGc1CWyPhhanrBEU4zBu-126" value="LOGO" style="whiteSpace=wrap;html=1;rounded=0;shadow=0;labelBackgroundColor=none;strokeWidth=1;fontFamily=Verdana;fontSize=28;align=center;comic=1;" vertex="1" parent="1">
          <mxGeometry x="60" y="3480" width="190" height="50" as="geometry" />
        </mxCell>
        <mxCell id="qGc1CWyPhhanrBEU4zBu-127" value="" style="line;strokeWidth=2;html=1;" vertex="1" parent="1">
          <mxGeometry x="30" y="3630" width="1070" height="10" as="geometry" />
        </mxCell>
        <UserObject label="%date{ddd mmm dd yyyy HH:MM:ss}%" placeholders="1" id="qGc1CWyPhhanrBEU4zBu-128">
          <mxCell style="text;html=1;strokeColor=none;fillColor=none;align=center;verticalAlign=middle;whiteSpace=wrap;overflow=hidden;" vertex="1" parent="1">
            <mxGeometry x="490" y="3650" width="160" height="20" as="geometry" />
          </mxCell>
        </UserObject>
        <UserObject label="&lt;div style=&quot;text-align: left;&quot;&gt;&lt;span style=&quot;font-size: 16px; background-color: initial;&quot;&gt;Endereço:&amp;nbsp;&lt;/span&gt;&lt;span style=&quot;font-size: 16px; background-color: initial; text-align: center;&quot;&gt;Rua Maranhão,330,Santa Efigênia&lt;br&gt;&lt;span style=&quot;white-space: pre;&quot;&gt;&#x9;&lt;/span&gt;&lt;span style=&quot;white-space: pre;&quot;&gt;&#x9;&lt;/span&gt;Belo Horizonte,Minas Gerais&lt;br&gt;&lt;br&gt;&lt;br&gt;&lt;/span&gt;&lt;/div&gt;&lt;div style=&quot;text-align: left;&quot;&gt;&lt;span style=&quot;font-size: 16px; background-color: initial; text-align: center;&quot;&gt;Atendimento: Segunda a Sexta -&amp;gt; 08:00 ás 18:00&lt;/span&gt;&lt;/div&gt;" placeholders="1" name="Variable" id="qGc1CWyPhhanrBEU4zBu-129">
          <mxCell style="text;html=1;strokeColor=none;fillColor=none;align=center;verticalAlign=middle;whiteSpace=wrap;overflow=hidden;" vertex="1" parent="1">
            <mxGeometry x="240" y="3460" width="460" height="140" as="geometry" />
          </mxCell>
        </UserObject>
        <mxCell id="qGc1CWyPhhanrBEU4zBu-131" value="Contatos&amp;nbsp;" style="text;strokeColor=none;fillColor=none;html=1;fontSize=24;fontStyle=1;verticalAlign=middle;align=center;" vertex="1" parent="1">
          <mxGeometry x="740" y="3440" width="100" height="40" as="geometry" />
        </mxCell>
        <UserObject label="+55 319128491249812" placeholders="1" id="qGc1CWyPhhanrBEU4zBu-132">
          <mxCell style="text;html=1;strokeColor=none;fillColor=none;align=center;verticalAlign=middle;whiteSpace=wrap;overflow=hidden;" vertex="1" parent="1">
            <mxGeometry x="717.5" y="3490" width="160" height="20" as="geometry" />
          </mxCell>
        </UserObject>
        <mxCell id="qGc1CWyPhhanrBEU4zBu-134" value="" style="shape=image;html=1;verticalAlign=top;verticalLabelPosition=bottom;labelBackgroundColor=#ffffff;imageAspect=0;aspect=fixed;image=https://cdn3.iconfinder.com/data/icons/2018-social-media-logotypes/1000/2018_social_media_popular_app_logo-whatsapp-128.png" vertex="1" parent="1">
          <mxGeometry x="872" y="3466" width="48" height="48" as="geometry" />
        </mxCell>
        <mxCell id="qGc1CWyPhhanrBEU4zBu-135" value="" style="html=1;verticalLabelPosition=bottom;align=center;labelBackgroundColor=#ffffff;verticalAlign=top;strokeWidth=2;strokeColor=#0080F0;shadow=0;dashed=0;shape=mxgraph.ios7.icons.mail;" vertex="1" parent="1">
          <mxGeometry x="877.5" y="3530" width="30" height="16.5" as="geometry" />
        </mxCell>
        <mxCell id="qGc1CWyPhhanrBEU4zBu-136" value="davi@gmail.com" style="text;html=1;align=center;verticalAlign=middle;whiteSpace=wrap;rounded=0;" vertex="1" parent="1">
          <mxGeometry x="690" y="3498.25" width="220" height="80" as="geometry" />
        </mxCell>
        <mxCell id="qGc1CWyPhhanrBEU4zBu-137" value="" style="shape=image;html=1;verticalAlign=top;verticalLabelPosition=bottom;labelBackgroundColor=#ffffff;imageAspect=0;aspect=fixed;image=https://cdn4.iconfinder.com/data/icons/logos-brands-7/512/instagram_icon-instagram_buttoninstegram-128.png" vertex="1" parent="1">
          <mxGeometry x="876" y="3570" width="38" height="38" as="geometry" />
        </mxCell>
        <mxCell id="qGc1CWyPhhanrBEU4zBu-138" value="davi_aburjeli" style="text;html=1;align=center;verticalAlign=middle;whiteSpace=wrap;rounded=0;" vertex="1" parent="1">
          <mxGeometry x="757.5" y="3574" width="80" height="30" as="geometry" />
        </mxCell>
        <mxCell id="qGc1CWyPhhanrBEU4zBu-139" value="&lt;h1 style=&quot;margin-top: 0px;&quot;&gt;&lt;font style=&quot;font-size: 21px;&quot;&gt;Termos de uso&lt;/font&gt;&lt;/h1&gt;&lt;div&gt;&lt;font style=&quot;font-size: 21px;&quot;&gt;Politica de Privacidade&lt;br&gt;&lt;br&gt;&lt;/font&gt;&lt;/div&gt;" style="text;html=1;whiteSpace=wrap;overflow=hidden;rounded=0;" vertex="1" parent="1">
          <mxGeometry x="940" y="3410" width="186" height="120" as="geometry" />
        </mxCell>
        <mxCell id="qGc1CWyPhhanrBEU4zBu-140" value="&lt;div style=&quot;text-align: justify&quot;&gt;Curriculo Davi&lt;br&gt;&lt;span style=&quot;font-family: Helvetica; text-align: left;&quot;&gt;Lorem ipsum dolor sit amet, consectetur adipisicing elit, sed do eiusmod tempor incididunt ut labore et dolore magna aliqua.&lt;/span&gt;&lt;span style=&quot;font-family: Helvetica; text-align: left; background-color: initial;&quot;&gt;Lorem ipsum dolor sit amet, consectetur adipisicing elit, sed do eiusmod tempor incididunt ut labore et dolore magna aliqua.&lt;/span&gt;&lt;span style=&quot;font-family: Helvetica; text-align: left; background-color: initial;&quot;&gt;Lorem ipsum dolor sit amet, consectetur adipisicing elit, sed do eiusmod tempor incididunt ut labore et dolore magna aliqua.&lt;/span&gt;&lt;span style=&quot;font-family: Helvetica; text-align: left; background-color: initial;&quot;&gt;Lorem ipsum dolor sit amet, consectetur adipisicing elit, sed do eiusmod tempor incididunt ut labore et dolore magna aliqua.&lt;/span&gt;&lt;br&gt;&lt;/div&gt;" style="whiteSpace=wrap;html=1;rounded=0;shadow=0;labelBackgroundColor=none;strokeWidth=1;fillColor=none;fontFamily=Verdana;fontSize=12;align=center;verticalAlign=top;spacing=10;comic=1;" vertex="1" parent="1">
          <mxGeometry x="580" y="1020" width="350" height="250" as="geometry" />
        </mxCell>
        <mxCell id="qGc1CWyPhhanrBEU4zBu-142" value="&lt;div style=&quot;text-align: justify&quot;&gt;Acesso via celular&lt;/div&gt;" style="whiteSpace=wrap;html=1;rounded=0;shadow=0;labelBackgroundColor=none;strokeWidth=1;fillColor=none;fontFamily=Verdana;fontSize=12;align=center;verticalAlign=top;spacing=10;comic=1;" vertex="1" parent="1">
          <mxGeometry x="100" y="2290" width="430" height="250" as="geometry" />
        </mxCell>
        <mxCell id="qGc1CWyPhhanrBEU4zBu-148" value="LOGO" style="whiteSpace=wrap;html=1;rounded=0;shadow=0;labelBackgroundColor=none;strokeWidth=1;fontFamily=Verdana;fontSize=28;align=center;comic=1;" vertex="1" parent="1">
          <mxGeometry x="1760" y="30" width="190" height="50" as="geometry" />
        </mxCell>
        <mxCell id="qGc1CWyPhhanrBEU4zBu-149" value="&lt;h1 style=&quot;margin-top: 0px; font-size: 36px;&quot;&gt;&lt;font style=&quot;font-size: 36px;&quot;&gt;Criação de conta&lt;/font&gt;&lt;/h1&gt;&lt;p style=&quot;font-size: 36px;&quot;&gt;&lt;br&gt;&lt;/p&gt;" style="text;html=1;whiteSpace=wrap;overflow=hidden;rounded=0;" vertex="1" parent="1">
          <mxGeometry x="1610" y="91.25" width="360" height="47.5" as="geometry" />
        </mxCell>
        <mxCell id="qGc1CWyPhhanrBEU4zBu-150" value="Crie sua conta em menos de 1 minuto" style="text;html=1;align=center;verticalAlign=middle;whiteSpace=wrap;rounded=0;" vertex="1" parent="1">
          <mxGeometry x="1670" y="150" width="210" height="30" as="geometry" />
        </mxCell>
        <mxCell id="qGc1CWyPhhanrBEU4zBu-151" value="Nome completo:" style="text;html=1;points=[];align=left;verticalAlign=top;spacingTop=-4;fontSize=14;fontFamily=Verdana" vertex="1" parent="1">
          <mxGeometry x="1475" y="220" width="170" height="20" as="geometry" />
        </mxCell>
        <mxCell id="qGc1CWyPhhanrBEU4zBu-152" value="" style="rounded=1;whiteSpace=wrap;html=1;" vertex="1" parent="1">
          <mxGeometry x="1475" y="440" width="510" height="40" as="geometry" />
        </mxCell>
        <mxCell id="qGc1CWyPhhanrBEU4zBu-153" value="" style="rounded=1;whiteSpace=wrap;html=1;" vertex="1" parent="1">
          <mxGeometry x="1475" y="240" width="510" height="40" as="geometry" />
        </mxCell>
        <mxCell id="qGc1CWyPhhanrBEU4zBu-154" value="" style="rounded=1;whiteSpace=wrap;html=1;" vertex="1" parent="1">
          <mxGeometry x="1480" y="550" width="510" height="40" as="geometry" />
        </mxCell>
        <mxCell id="qGc1CWyPhhanrBEU4zBu-155" value="E-mail:" style="text;html=1;points=[];align=left;verticalAlign=top;spacingTop=-4;fontSize=14;fontFamily=Verdana" vertex="1" parent="1">
          <mxGeometry x="1480" y="415" width="170" height="20" as="geometry" />
        </mxCell>
        <mxCell id="qGc1CWyPhhanrBEU4zBu-156" value="Senha:" style="text;html=1;points=[];align=left;verticalAlign=top;spacingTop=-4;fontSize=14;fontFamily=Verdana" vertex="1" parent="1">
          <mxGeometry x="1480" y="530" width="170" height="20" as="geometry" />
        </mxCell>
        <mxCell id="qGc1CWyPhhanrBEU4zBu-158" value="" style="rounded=1;whiteSpace=wrap;html=1;" vertex="1" parent="1">
          <mxGeometry x="1480" y="330" width="510" height="40" as="geometry" />
        </mxCell>
        <mxCell id="qGc1CWyPhhanrBEU4zBu-159" value="CPF:" style="text;html=1;points=[];align=left;verticalAlign=top;spacingTop=-4;fontSize=14;fontFamily=Verdana" vertex="1" parent="1">
          <mxGeometry x="1480" y="310" width="170" height="20" as="geometry" />
        </mxCell>
        <mxCell id="qGc1CWyPhhanrBEU4zBu-160" value="&lt;h1 style=&quot;margin-top: 0px;&quot;&gt;&lt;span style=&quot;color: rgb(63, 66, 84); font-family: poppins, &amp;quot;helvetica neue&amp;quot;, Helvetica, Arial, sans-serif; font-size: 13px; font-weight: 400; background-color: rgb(255, 255, 255);&quot;&gt;Ao criar sua conta você concorda com os&lt;/span&gt;&lt;br style=&quot;box-sizing: border-box; color: rgb(63, 66, 84); font-family: poppins, &amp;quot;helvetica neue&amp;quot;, Helvetica, Arial, sans-serif; font-size: 13px; font-weight: 400; background-color: rgb(255, 255, 255);&quot;&gt;&lt;a style=&quot;box-sizing: border-box; text-decoration-line: none; background-color: rgb(255, 255, 255); transition: color 0.15s, background-color 0.15s, border-color 0.15s, box-shadow 0.15s, -webkit-box-shadow 0.15s; font-family: poppins, &amp;quot;helvetica neue&amp;quot;, Helvetica, Arial, sans-serif; font-size: 13px; font-weight: 400; outline: 0px !important;&quot; href=&quot;https://consultoriogratis.com.br/termos&quot;&gt;Termos de uso&lt;/a&gt;&lt;span style=&quot;color: rgb(63, 66, 84); font-family: poppins, &amp;quot;helvetica neue&amp;quot;, Helvetica, Arial, sans-serif; font-size: 13px; font-weight: 400; background-color: rgb(255, 255, 255);&quot;&gt;&amp;nbsp;e&amp;nbsp;&lt;/span&gt;&lt;a style=&quot;box-sizing: border-box; text-decoration-line: none; background-color: rgb(255, 255, 255); transition: color 0.15s, background-color 0.15s, border-color 0.15s, box-shadow 0.15s, -webkit-box-shadow 0.15s; font-family: poppins, &amp;quot;helvetica neue&amp;quot;, Helvetica, Arial, sans-serif; font-size: 13px; font-weight: 400; outline: 0px !important;&quot; href=&quot;https://consultoriogratis.com.br/politica-de-privacidade&quot;&gt;Política de privacidade&lt;/a&gt;&lt;span style=&quot;color: rgb(63, 66, 84); font-family: poppins, &amp;quot;helvetica neue&amp;quot;, Helvetica, Arial, sans-serif; font-size: 13px; font-weight: 400; background-color: rgb(255, 255, 255);&quot;&gt;.&lt;/span&gt;&lt;br&gt;&lt;/h1&gt;" style="text;html=1;whiteSpace=wrap;overflow=hidden;rounded=0;" vertex="1" parent="1">
          <mxGeometry x="1410" y="610" width="250" height="80" as="geometry" />
        </mxCell>
        <mxCell id="XLhhQLwNxboojujIq6jB-6" style="edgeStyle=orthogonalEdgeStyle;rounded=0;orthogonalLoop=1;jettySize=auto;html=1;entryX=1;entryY=0.25;entryDx=0;entryDy=0;" edge="1" parent="1" source="qGc1CWyPhhanrBEU4zBu-161" target="677b7b8949515195-1">
          <mxGeometry relative="1" as="geometry">
            <Array as="points">
              <mxPoint x="1755" y="935" />
            </Array>
          </mxGeometry>
        </mxCell>
        <mxCell id="qGc1CWyPhhanrBEU4zBu-161" value="CRIAR CONTA E ACESSAR" style="rounded=1;whiteSpace=wrap;html=1;" vertex="1" parent="1">
          <mxGeometry x="1660" y="650" width="190" height="50" as="geometry" />
        </mxCell>
        <mxCell id="qGc1CWyPhhanrBEU4zBu-163" value="" style="rounded=0;whiteSpace=wrap;html=1;" vertex="1" parent="1">
          <mxGeometry x="2040" y="150" width="280" height="480" as="geometry" />
        </mxCell>
        <mxCell id="qGc1CWyPhhanrBEU4zBu-164" value="" style="verticalLabelPosition=bottom;shadow=0;dashed=0;align=center;html=1;verticalAlign=top;strokeWidth=1;shape=mxgraph.mockup.containers.userMale;strokeColor=#666666;strokeColor2=#008cff;" vertex="1" parent="1">
          <mxGeometry x="2085" y="335" width="190" height="230" as="geometry" />
        </mxCell>
        <mxCell id="qGc1CWyPhhanrBEU4zBu-165" value="&lt;h1 style=&quot;margin-top: 0px;&quot;&gt;Heading&lt;/h1&gt;&lt;p&gt;Lorem ipsum dolor sit amet, consectetur adipisicing elit, sed do eiusmod tempor incididunt ut labore et dolore magna aliqua.&lt;/p&gt;" style="text;html=1;whiteSpace=wrap;overflow=hidden;rounded=0;" vertex="1" parent="1">
          <mxGeometry x="2095" y="170" width="180" height="120" as="geometry" />
        </mxCell>
        <mxCell id="XLhhQLwNxboojujIq6jB-9" value="&lt;div style=&quot;text-align: justify&quot;&gt;&lt;br&gt;&lt;/div&gt;" style="whiteSpace=wrap;html=1;rounded=0;shadow=0;labelBackgroundColor=none;strokeWidth=1;fillColor=none;fontFamily=Verdana;fontSize=12;align=center;verticalAlign=top;spacing=10;comic=1;" vertex="1" parent="1">
          <mxGeometry x="1110" y="-820" width="950" height="720" as="geometry" />
        </mxCell>
        <mxCell id="XLhhQLwNxboojujIq6jB-11" value="&lt;h1 style=&quot;margin-top: 0px; font-size: 36px;&quot;&gt;LOGIN USUÁRIO&lt;/h1&gt;" style="text;html=1;whiteSpace=wrap;overflow=hidden;rounded=0;" vertex="1" parent="1">
          <mxGeometry x="1445" y="-780" width="360" height="47.5" as="geometry" />
        </mxCell>
        <mxCell id="XLhhQLwNxboojujIq6jB-14" value="" style="rounded=1;whiteSpace=wrap;html=1;" vertex="1" parent="1">
          <mxGeometry x="1370" y="-590" width="510" height="40" as="geometry" />
        </mxCell>
        <mxCell id="XLhhQLwNxboojujIq6jB-15" value="E-mail" style="text;html=1;points=[];align=left;verticalAlign=top;spacingTop=-4;fontSize=14;fontFamily=Verdana" vertex="1" parent="1">
          <mxGeometry x="1380" y="-610" width="170" height="20" as="geometry" />
        </mxCell>
        <mxCell id="XLhhQLwNxboojujIq6jB-16" value="" style="rounded=1;whiteSpace=wrap;html=1;" vertex="1" parent="1">
          <mxGeometry x="1370" y="-480" width="510" height="40" as="geometry" />
        </mxCell>
        <mxCell id="XLhhQLwNxboojujIq6jB-17" value="Senha:" style="text;html=1;points=[];align=left;verticalAlign=top;spacingTop=-4;fontSize=14;fontFamily=Verdana" vertex="1" parent="1">
          <mxGeometry x="1380" y="-500" width="170" height="20" as="geometry" />
        </mxCell>
        <mxCell id="XLhhQLwNxboojujIq6jB-18" value="&lt;h1 style=&quot;margin-top: 0px;&quot;&gt;&lt;br&gt;&lt;/h1&gt;&lt;p&gt;Lorem ipsum dolor sit amet, consectetur adipisicing elit, sed do eiusmod tempor incididunt ut labore et dolore magna aliqua.&lt;/p&gt;" style="text;html=1;whiteSpace=wrap;overflow=hidden;rounded=0;" vertex="1" parent="1">
          <mxGeometry x="1315" y="-780" width="670" height="120" as="geometry" />
        </mxCell>
        <mxCell id="XLhhQLwNxboojujIq6jB-19" value="" style="shape=actor;whiteSpace=wrap;html=1;" vertex="1" parent="1">
          <mxGeometry x="1530" y="-380" width="40" height="60" as="geometry" />
        </mxCell>
        <mxCell id="XLhhQLwNxboojujIq6jB-21" style="edgeStyle=orthogonalEdgeStyle;rounded=0;orthogonalLoop=1;jettySize=auto;html=1;entryX=1;entryY=0.25;entryDx=0;entryDy=0;" edge="1" parent="1" source="XLhhQLwNxboojujIq6jB-20" target="677b7b8949515195-1">
          <mxGeometry relative="1" as="geometry" />
        </mxCell>
        <mxCell id="XLhhQLwNxboojujIq6jB-20" value="Acessar" style="rounded=1;whiteSpace=wrap;html=1;" vertex="1" parent="1">
          <mxGeometry x="1600" y="-380" width="170" height="60" as="geometry" />
        </mxCell>
        <UserObject label="Esqueceu sua senha?" link="https://www.draw.io" id="XLhhQLwNxboojujIq6jB-22">
          <mxCell style="text;html=1;strokeColor=none;fillColor=none;whiteSpace=wrap;align=center;verticalAlign=middle;fontColor=#0000EE;fontStyle=4;" vertex="1" parent="1">
            <mxGeometry x="1775" y="-440" width="160" height="40" as="geometry" />
          </mxCell>
        </UserObject>
        <mxCell id="XLhhQLwNxboojujIq6jB-26" value="" style="rounded=1;whiteSpace=wrap;html=1;" vertex="1" parent="1">
          <mxGeometry x="665" y="50" width="120" height="60" as="geometry" />
        </mxCell>
        <mxCell id="XLhhQLwNxboojujIq6jB-30" style="edgeStyle=orthogonalEdgeStyle;rounded=0;orthogonalLoop=1;jettySize=auto;html=1;entryX=1;entryY=0.5;entryDx=0;entryDy=0;" edge="1" parent="1" source="XLhhQLwNxboojujIq6jB-27" target="XLhhQLwNxboojujIq6jB-29">
          <mxGeometry relative="1" as="geometry">
            <mxPoint x="700" y="-450" as="targetPoint" />
            <Array as="points">
              <mxPoint x="720" y="-450" />
            </Array>
          </mxGeometry>
        </mxCell>
        <mxCell id="XLhhQLwNxboojujIq6jB-27" value="Acesso Restrito" style="text;html=1;points=[];align=left;verticalAlign=top;spacingTop=-4;fontSize=14;fontFamily=Verdana" vertex="1" parent="1">
          <mxGeometry x="670" y="70" width="60" height="20" as="geometry" />
        </mxCell>
        <mxCell id="XLhhQLwNxboojujIq6jB-29" value="&lt;div style=&quot;text-align: justify&quot;&gt;&lt;br&gt;&lt;/div&gt;" style="whiteSpace=wrap;html=1;rounded=0;shadow=0;labelBackgroundColor=none;strokeWidth=1;fillColor=none;fontFamily=Verdana;fontSize=12;align=center;verticalAlign=top;spacing=10;comic=1;" vertex="1" parent="1">
          <mxGeometry x="-1010" y="-840" width="950" height="720" as="geometry" />
        </mxCell>
        <mxCell id="XLhhQLwNxboojujIq6jB-31" value="&lt;h1 style=&quot;margin-top: 0px; font-size: 36px;&quot;&gt;Login Davi Aburjeli&lt;/h1&gt;" style="text;html=1;whiteSpace=wrap;overflow=hidden;rounded=0;" vertex="1" parent="1">
          <mxGeometry x="-730" y="-820" width="360" height="47.5" as="geometry" />
        </mxCell>
        <mxCell id="XLhhQLwNxboojujIq6jB-32" value="" style="rounded=1;whiteSpace=wrap;html=1;" vertex="1" parent="1">
          <mxGeometry x="-960" y="-720" width="590" height="50" as="geometry" />
        </mxCell>
        <mxCell id="XLhhQLwNxboojujIq6jB-34" value="" style="rounded=1;whiteSpace=wrap;html=1;" vertex="1" parent="1">
          <mxGeometry x="-960" y="-600" width="590" height="50" as="geometry" />
        </mxCell>
        <mxCell id="XLhhQLwNxboojujIq6jB-35" value="" style="rounded=1;whiteSpace=wrap;html=1;" vertex="1" parent="1">
          <mxGeometry x="-960" y="-470" width="590" height="50" as="geometry" />
        </mxCell>
        <mxCell id="XLhhQLwNxboojujIq6jB-36" value="CPF:" style="text;html=1;points=[];align=left;verticalAlign=top;spacingTop=-4;fontSize=14;fontFamily=Verdana" vertex="1" parent="1">
          <mxGeometry x="-960" y="-740" width="170" height="20" as="geometry" />
        </mxCell>
        <mxCell id="XLhhQLwNxboojujIq6jB-38" value="E-mail&lt;span style=&quot;color: rgba(0, 0, 0, 0); font-family: monospace; font-size: 0px;&quot;&gt;%3CmxGraphModel%3E%3Croot%3E%3CmxCell%20id%3D%220%22%2F%3E%3CmxCell%20id%3D%221%22%20parent%3D%220%22%2F%3E%3CmxCell%20id%3D%222%22%20value%3D%22CPF%3A%22%20style%3D%22text%3Bhtml%3D1%3Bpoints%3D%5B%5D%3Balign%3Dleft%3BverticalAlign%3Dtop%3BspacingTop%3D-4%3BfontSize%3D14%3BfontFamily%3DVerdana%22%20vertex%3D%221%22%20parent%3D%221%22%3E%3CmxGeometry%20x%3D%22-960%22%20y%3D%22-740%22%20width%3D%22170%22%20height%3D%2220%22%20as%3D%22geometry%22%2F%3E%3C%2FmxCell%3E%3C%2Froot%3E%3C%2FmxGraphModel%3E&lt;/span&gt;" style="text;html=1;points=[];align=left;verticalAlign=top;spacingTop=-4;fontSize=14;fontFamily=Verdana" vertex="1" parent="1">
          <mxGeometry x="-960" y="-620" width="170" height="20" as="geometry" />
        </mxCell>
        <mxCell id="XLhhQLwNxboojujIq6jB-39" value="Senha:" style="text;html=1;points=[];align=left;verticalAlign=top;spacingTop=-4;fontSize=14;fontFamily=Verdana" vertex="1" parent="1">
          <mxGeometry x="-960" y="-500" width="170" height="20" as="geometry" />
        </mxCell>
        <mxCell id="XLhhQLwNxboojujIq6jB-40" value="" style="verticalLabelPosition=bottom;shadow=0;dashed=0;align=center;html=1;verticalAlign=top;strokeWidth=1;shape=mxgraph.mockup.containers.userMale;strokeColor=#666666;strokeColor2=#008cff;" vertex="1" parent="1">
          <mxGeometry x="-350" y="-400" width="270" height="260" as="geometry" />
        </mxCell>
        <mxCell id="XLhhQLwNxboojujIq6jB-42" style="edgeStyle=orthogonalEdgeStyle;rounded=0;orthogonalLoop=1;jettySize=auto;html=1;exitX=0.5;exitY=1;exitDx=0;exitDy=0;" edge="1" parent="1" source="XLhhQLwNxboojujIq6jB-41">
          <mxGeometry relative="1" as="geometry">
            <mxPoint x="-690" y="210" as="targetPoint" />
          </mxGeometry>
        </mxCell>
        <mxCell id="XLhhQLwNxboojujIq6jB-41" value="Acessar" style="rounded=1;whiteSpace=wrap;html=1;" vertex="1" parent="1">
          <mxGeometry x="-770" y="-380" width="160" height="50" as="geometry" />
        </mxCell>
        <mxCell id="XLhhQLwNxboojujIq6jB-43" value="&lt;div style=&quot;text-align: justify&quot;&gt;&lt;br&gt;&lt;/div&gt;" style="whiteSpace=wrap;html=1;rounded=0;shadow=0;labelBackgroundColor=none;strokeWidth=1;fillColor=none;fontFamily=Verdana;fontSize=12;align=center;verticalAlign=top;spacing=10;comic=1;" vertex="1" parent="1">
          <mxGeometry x="-1060" y="235" width="950" height="720" as="geometry" />
        </mxCell>
        <mxCell id="XLhhQLwNxboojujIq6jB-47" value="" style="endArrow=none;html=1;rounded=0;exitX=0;exitY=0;exitDx=0;exitDy=0;entryX=1;entryY=1;entryDx=0;entryDy=0;" edge="1" parent="1" source="XLhhQLwNxboojujIq6jB-43" target="XLhhQLwNxboojujIq6jB-43">
          <mxGeometry width="50" height="50" relative="1" as="geometry">
            <mxPoint x="-630" y="620" as="sourcePoint" />
            <mxPoint x="-580" y="570" as="targetPoint" />
          </mxGeometry>
        </mxCell>
        <mxCell id="XLhhQLwNxboojujIq6jB-48" value="" style="endArrow=none;html=1;rounded=0;exitX=0;exitY=1;exitDx=0;exitDy=0;entryX=1;entryY=0;entryDx=0;entryDy=0;" edge="1" parent="1" source="XLhhQLwNxboojujIq6jB-43" target="XLhhQLwNxboojujIq6jB-43">
          <mxGeometry width="50" height="50" relative="1" as="geometry">
            <mxPoint x="-630" y="620" as="sourcePoint" />
            <mxPoint x="-580" y="570" as="targetPoint" />
          </mxGeometry>
        </mxCell>
        <mxCell id="XLhhQLwNxboojujIq6jB-50" value="&lt;h1 style=&quot;margin-top: 0px; font-size: 36px;&quot;&gt;Tela PRIVADA DAVI&lt;br&gt;&lt;br&gt;(LARA)&lt;/h1&gt;" style="text;html=1;whiteSpace=wrap;overflow=hidden;rounded=0;" vertex="1" parent="1">
          <mxGeometry x="-740" y="552.5" width="360" height="157.5" as="geometry" />
        </mxCell>
      </root>
    </mxGraphModel>
  </diagram>
  <diagram name="Dashboard-Lara" id="N2-9Pk27CgL3GupsoJAr">
    <mxGraphModel dx="2074" dy="738" grid="1" gridSize="10" guides="1" tooltips="1" connect="1" arrows="1" fold="1" page="1" pageScale="1" pageWidth="1100" pageHeight="850" background="none" math="0" shadow="0">
      <root>
        <mxCell id="ou7rN18NipHAHG5uuUOc-0" />
        <mxCell id="ou7rN18NipHAHG5uuUOc-1" parent="ou7rN18NipHAHG5uuUOc-0" />
        <mxCell id="ou7rN18NipHAHG5uuUOc-2" value="" style="whiteSpace=wrap;html=1;rounded=0;shadow=0;labelBackgroundColor=none;strokeColor=#000000;strokeWidth=1;fillColor=none;fontFamily=Verdana;fontSize=12;fontColor=#000000;align=center;comic=1;" vertex="1" parent="ou7rN18NipHAHG5uuUOc-1">
          <mxGeometry x="20" y="20" width="1060" height="810" as="geometry" />
        </mxCell>
        <mxCell id="ou7rN18NipHAHG5uuUOc-3" value="LOGO" style="whiteSpace=wrap;html=1;rounded=0;shadow=0;labelBackgroundColor=none;strokeWidth=1;fontFamily=Verdana;fontSize=28;align=center;comic=1;" vertex="1" parent="ou7rN18NipHAHG5uuUOc-1">
          <mxGeometry x="40" y="60" width="190" height="50" as="geometry" />
        </mxCell>
        <mxCell id="ou7rN18NipHAHG5uuUOc-4" value="Search" style="strokeWidth=1;shadow=0;dashed=0;align=center;html=1;shape=mxgraph.mockup.forms.searchBox;strokeColor=#999999;mainText=;strokeColor2=#008cff;fontColor=#666666;fontSize=17;align=left;spacingLeft=3;rounded=0;labelBackgroundColor=none;comic=1;" vertex="1" parent="ou7rN18NipHAHG5uuUOc-1">
          <mxGeometry x="840" y="95" width="220" height="30" as="geometry" />
        </mxCell>
        <mxCell id="ou7rN18NipHAHG5uuUOc-5" value="Topic 1" style="text;html=1;points=[];align=left;verticalAlign=top;spacingTop=-4;fontSize=14;fontFamily=Verdana" vertex="1" parent="ou7rN18NipHAHG5uuUOc-1">
          <mxGeometry x="780" y="40" width="60" height="20" as="geometry" />
        </mxCell>
        <mxCell id="ou7rN18NipHAHG5uuUOc-6" value="Topic 2" style="text;html=1;points=[];align=left;verticalAlign=top;spacingTop=-4;fontSize=14;fontFamily=Verdana" vertex="1" parent="ou7rN18NipHAHG5uuUOc-1">
          <mxGeometry x="860" y="40" width="60" height="20" as="geometry" />
        </mxCell>
        <mxCell id="ou7rN18NipHAHG5uuUOc-7" value="Topic 3" style="text;html=1;points=[];align=left;verticalAlign=top;spacingTop=-4;fontSize=14;fontFamily=Verdana" vertex="1" parent="ou7rN18NipHAHG5uuUOc-1">
          <mxGeometry x="930" y="40" width="60" height="20" as="geometry" />
        </mxCell>
        <mxCell id="ou7rN18NipHAHG5uuUOc-8" value="Topic 4" style="text;html=1;points=[];align=left;verticalAlign=top;spacingTop=-4;fontSize=14;fontFamily=Verdana" vertex="1" parent="ou7rN18NipHAHG5uuUOc-1">
          <mxGeometry x="1000" y="40" width="60" height="20" as="geometry" />
        </mxCell>
        <mxCell id="ou7rN18NipHAHG5uuUOc-9" value="" style="whiteSpace=wrap;html=1;rounded=0;shadow=0;labelBackgroundColor=none;strokeWidth=1;fillColor=none;fontFamily=Verdana;fontSize=12;align=center;comic=1;" vertex="1" parent="ou7rN18NipHAHG5uuUOc-1">
          <mxGeometry x="30" y="230" width="200" height="590" as="geometry" />
        </mxCell>
        <mxCell id="ou7rN18NipHAHG5uuUOc-10" value="" style="line;strokeWidth=1;html=1;rounded=0;shadow=0;labelBackgroundColor=none;fillColor=none;fontFamily=Verdana;fontSize=14;fontColor=#000000;align=center;comic=1;" vertex="1" parent="ou7rN18NipHAHG5uuUOc-1">
          <mxGeometry x="20" y="140" width="1060" height="10" as="geometry" />
        </mxCell>
        <mxCell id="ou7rN18NipHAHG5uuUOc-11" value="" style="whiteSpace=wrap;html=1;rounded=0;shadow=0;labelBackgroundColor=none;strokeWidth=1;fillColor=none;fontFamily=Verdana;fontSize=12;align=center;comic=1;" vertex="1" parent="ou7rN18NipHAHG5uuUOc-1">
          <mxGeometry x="30" y="160" width="1040" height="50" as="geometry" />
        </mxCell>
        <mxCell id="ou7rN18NipHAHG5uuUOc-12" value="Section 1" style="text;html=1;points=[];align=left;verticalAlign=top;spacingTop=-4;fontSize=14;fontFamily=Verdana" vertex="1" parent="ou7rN18NipHAHG5uuUOc-1">
          <mxGeometry x="330" y="175" width="60" height="20" as="geometry" />
        </mxCell>
        <mxCell id="ou7rN18NipHAHG5uuUOc-13" value="Section 2" style="text;html=1;points=[];align=left;verticalAlign=top;spacingTop=-4;fontSize=14;fontFamily=Verdana" vertex="1" parent="ou7rN18NipHAHG5uuUOc-1">
          <mxGeometry x="477" y="175" width="60" height="20" as="geometry" />
        </mxCell>
        <mxCell id="ou7rN18NipHAHG5uuUOc-14" value="Section 3" style="text;html=1;points=[];align=left;verticalAlign=top;spacingTop=-4;fontSize=14;fontFamily=Verdana" vertex="1" parent="ou7rN18NipHAHG5uuUOc-1">
          <mxGeometry x="623" y="175" width="60" height="20" as="geometry" />
        </mxCell>
        <mxCell id="ou7rN18NipHAHG5uuUOc-15" value="Section 4" style="text;html=1;points=[];align=left;verticalAlign=top;spacingTop=-4;fontSize=14;fontFamily=Verdana" vertex="1" parent="ou7rN18NipHAHG5uuUOc-1">
          <mxGeometry x="770" y="175" width="60" height="20" as="geometry" />
        </mxCell>
        <mxCell id="ou7rN18NipHAHG5uuUOc-16" value="&lt;div style=&quot;text-align: justify&quot;&gt;&lt;span&gt;Lorem ipsum dolor sit amet, consectetur adipisicing elit, sed do eiusmod tempor incididunt ut labore et dolore magna aliqua. Ut enim ad minim veniam, quis nostrud exercitation ullamco laboris nisi ut aliquip ex ea commodo consequat. Duis aute irure dolor in reprehenderit in voluptate velit esse cillum dolore eu fugiat nulla pariatur. Excepteur sint occaecat cupidatat non proident, sunt in culpa qui officia deserunt mollit anim id est laborum.&lt;/span&gt;&lt;/div&gt;&lt;div style=&quot;text-align: justify&quot;&gt;&lt;span&gt;Sed ut perspiciatis unde omnis iste natus error sit voluptatem accusantium doloremque laudantium, totam rem aperiam, eaque ipsa quae ab illo inventore veritatis et quasi architecto beatae vitae dicta sunt explicabo. Nemo enim ipsam voluptatem quia voluptas sit aspernatur aut odit aut fugit, sed quia consequuntur magni dolores eos qui ratione voluptatem sequi nesciunt.&amp;nbsp;&lt;/span&gt;&lt;/div&gt;" style="whiteSpace=wrap;html=1;rounded=0;shadow=0;labelBackgroundColor=none;strokeWidth=1;fillColor=none;fontFamily=Verdana;fontSize=12;align=center;verticalAlign=top;spacing=10;comic=1;" vertex="1" parent="ou7rN18NipHAHG5uuUOc-1">
          <mxGeometry x="250" y="640" width="580" height="180" as="geometry" />
        </mxCell>
        <mxCell id="ou7rN18NipHAHG5uuUOc-17" value="" style="verticalLabelPosition=bottom;shadow=0;dashed=0;align=center;html=1;verticalAlign=top;strokeWidth=1;shape=mxgraph.mockup.graphics.simpleIcon;strokeColor=#999999;rounded=0;labelBackgroundColor=none;fontFamily=Verdana;fontSize=14;fontColor=#000000;comic=1;" vertex="1" parent="ou7rN18NipHAHG5uuUOc-1">
          <mxGeometry x="250" y="230" width="580" height="400" as="geometry" />
        </mxCell>
        <mxCell id="ou7rN18NipHAHG5uuUOc-18" value="" style="whiteSpace=wrap;html=1;rounded=0;shadow=0;labelBackgroundColor=none;strokeWidth=1;fillColor=none;fontFamily=Verdana;fontSize=12;align=center;comic=1;" vertex="1" parent="ou7rN18NipHAHG5uuUOc-1">
          <mxGeometry x="840" y="230" width="230" height="400" as="geometry" />
        </mxCell>
        <mxCell id="ou7rN18NipHAHG5uuUOc-19" value="" style="whiteSpace=wrap;html=1;rounded=0;shadow=0;labelBackgroundColor=none;strokeWidth=1;fillColor=none;fontFamily=Verdana;fontSize=12;align=center;comic=1;" vertex="1" parent="ou7rN18NipHAHG5uuUOc-1">
          <mxGeometry x="840" y="640" width="230" height="180" as="geometry" />
        </mxCell>
        <mxCell id="ou7rN18NipHAHG5uuUOc-20" value="Section 1" style="text;html=1;points=[];align=left;verticalAlign=top;spacingTop=-4;fontSize=14;fontFamily=Verdana" vertex="1" parent="ou7rN18NipHAHG5uuUOc-1">
          <mxGeometry x="40" y="250" width="170" height="20" as="geometry" />
        </mxCell>
        <mxCell id="ou7rN18NipHAHG5uuUOc-21" value="Section 2" style="text;html=1;points=[];align=left;verticalAlign=top;spacingTop=-4;fontSize=14;fontFamily=Verdana" vertex="1" parent="ou7rN18NipHAHG5uuUOc-1">
          <mxGeometry x="40" y="286" width="170" height="20" as="geometry" />
        </mxCell>
        <mxCell id="ou7rN18NipHAHG5uuUOc-22" value="Section 3" style="text;html=1;points=[];align=left;verticalAlign=top;spacingTop=-4;fontSize=14;fontFamily=Verdana" vertex="1" parent="ou7rN18NipHAHG5uuUOc-1">
          <mxGeometry x="40" y="321" width="170" height="20" as="geometry" />
        </mxCell>
        <mxCell id="ou7rN18NipHAHG5uuUOc-23" value="Section 4" style="text;html=1;points=[];align=left;verticalAlign=top;spacingTop=-4;fontSize=14;fontFamily=Verdana" vertex="1" parent="ou7rN18NipHAHG5uuUOc-1">
          <mxGeometry x="40" y="357" width="170" height="20" as="geometry" />
        </mxCell>
        <mxCell id="ou7rN18NipHAHG5uuUOc-24" value="Section 7" style="text;html=1;points=[];align=left;verticalAlign=top;spacingTop=-4;fontSize=14;fontFamily=Verdana" vertex="1" parent="ou7rN18NipHAHG5uuUOc-1">
          <mxGeometry x="40" y="464" width="170" height="20" as="geometry" />
        </mxCell>
        <mxCell id="ou7rN18NipHAHG5uuUOc-25" value="Section 8" style="text;html=1;points=[];align=left;verticalAlign=top;spacingTop=-4;fontSize=14;fontFamily=Verdana" vertex="1" parent="ou7rN18NipHAHG5uuUOc-1">
          <mxGeometry x="40" y="500" width="170" height="20" as="geometry" />
        </mxCell>
        <mxCell id="ou7rN18NipHAHG5uuUOc-26" value="Section 9" style="text;html=1;points=[];align=left;verticalAlign=top;spacingTop=-4;fontSize=14;fontFamily=Verdana" vertex="1" parent="ou7rN18NipHAHG5uuUOc-1">
          <mxGeometry x="40" y="536" width="170" height="20" as="geometry" />
        </mxCell>
        <mxCell id="ou7rN18NipHAHG5uuUOc-27" value="Section 10" style="text;html=1;points=[];align=left;verticalAlign=top;spacingTop=-4;fontSize=14;fontFamily=Verdana" vertex="1" parent="ou7rN18NipHAHG5uuUOc-1">
          <mxGeometry x="40" y="571" width="170" height="20" as="geometry" />
        </mxCell>
        <mxCell id="ou7rN18NipHAHG5uuUOc-28" value="Section 11" style="text;html=1;points=[];align=left;verticalAlign=top;spacingTop=-4;fontSize=14;fontFamily=Verdana" vertex="1" parent="ou7rN18NipHAHG5uuUOc-1">
          <mxGeometry x="40" y="607" width="170" height="20" as="geometry" />
        </mxCell>
        <mxCell id="ou7rN18NipHAHG5uuUOc-29" value="Section 12" style="text;html=1;points=[];align=left;verticalAlign=top;spacingTop=-4;fontSize=14;fontFamily=Verdana" vertex="1" parent="ou7rN18NipHAHG5uuUOc-1">
          <mxGeometry x="40" y="643" width="170" height="20" as="geometry" />
        </mxCell>
        <mxCell id="ou7rN18NipHAHG5uuUOc-30" value="Section 13" style="text;html=1;points=[];align=left;verticalAlign=top;spacingTop=-4;fontSize=14;fontFamily=Verdana" vertex="1" parent="ou7rN18NipHAHG5uuUOc-1">
          <mxGeometry x="40" y="679" width="170" height="20" as="geometry" />
        </mxCell>
        <mxCell id="ou7rN18NipHAHG5uuUOc-31" value="Section 14" style="text;html=1;points=[];align=left;verticalAlign=top;spacingTop=-4;fontSize=14;fontFamily=Verdana" vertex="1" parent="ou7rN18NipHAHG5uuUOc-1">
          <mxGeometry x="40" y="714" width="170" height="20" as="geometry" />
        </mxCell>
        <mxCell id="ou7rN18NipHAHG5uuUOc-32" value="Section 5" style="text;html=1;points=[];align=left;verticalAlign=top;spacingTop=-4;fontSize=14;fontFamily=Verdana" vertex="1" parent="ou7rN18NipHAHG5uuUOc-1">
          <mxGeometry x="40" y="393" width="170" height="20" as="geometry" />
        </mxCell>
        <mxCell id="ou7rN18NipHAHG5uuUOc-33" value="Section 6" style="text;html=1;points=[];align=left;verticalAlign=top;spacingTop=-4;fontSize=14;fontFamily=Verdana" vertex="1" parent="ou7rN18NipHAHG5uuUOc-1">
          <mxGeometry x="40" y="429" width="170" height="20" as="geometry" />
        </mxCell>
        <mxCell id="ou7rN18NipHAHG5uuUOc-34" value="Section 15" style="text;html=1;points=[];align=left;verticalAlign=top;spacingTop=-4;fontSize=14;fontFamily=Verdana" vertex="1" parent="ou7rN18NipHAHG5uuUOc-1">
          <mxGeometry x="40" y="750" width="170" height="20" as="geometry" />
        </mxCell>
        <mxCell id="ou7rN18NipHAHG5uuUOc-35" value="External Links" style="text;html=1;points=[];align=left;verticalAlign=top;spacingTop=-4;fontSize=14;fontFamily=Verdana" vertex="1" parent="ou7rN18NipHAHG5uuUOc-1">
          <mxGeometry x="860" y="653" width="170" height="20" as="geometry" />
        </mxCell>
        <mxCell id="ou7rN18NipHAHG5uuUOc-36" value="Feature 1" style="text;html=1;points=[];align=left;verticalAlign=top;spacingTop=-4;fontSize=14;fontFamily=Verdana" vertex="1" parent="ou7rN18NipHAHG5uuUOc-1">
          <mxGeometry x="860" y="250" width="170" height="20" as="geometry" />
        </mxCell>
        <mxCell id="ou7rN18NipHAHG5uuUOc-37" value="Feature 2" style="text;html=1;points=[];align=left;verticalAlign=top;spacingTop=-4;fontSize=14;fontFamily=Verdana" vertex="1" parent="ou7rN18NipHAHG5uuUOc-1">
          <mxGeometry x="860" y="285" width="170" height="20" as="geometry" />
        </mxCell>
        <mxCell id="ou7rN18NipHAHG5uuUOc-38" value="Feature 3" style="text;html=1;points=[];align=left;verticalAlign=top;spacingTop=-4;fontSize=14;fontFamily=Verdana" vertex="1" parent="ou7rN18NipHAHG5uuUOc-1">
          <mxGeometry x="860" y="320" width="170" height="20" as="geometry" />
        </mxCell>
        <mxCell id="ou7rN18NipHAHG5uuUOc-39" value="Feature 4" style="text;html=1;points=[];align=left;verticalAlign=top;spacingTop=-4;fontSize=14;fontFamily=Verdana" vertex="1" parent="ou7rN18NipHAHG5uuUOc-1">
          <mxGeometry x="860" y="355" width="170" height="20" as="geometry" />
        </mxCell>
        <mxCell id="ou7rN18NipHAHG5uuUOc-40" value="Feature 5" style="text;html=1;points=[];align=left;verticalAlign=top;spacingTop=-4;fontSize=14;fontFamily=Verdana" vertex="1" parent="ou7rN18NipHAHG5uuUOc-1">
          <mxGeometry x="860" y="390" width="170" height="20" as="geometry" />
        </mxCell>
        <mxCell id="ou7rN18NipHAHG5uuUOc-41" value="Feature 6" style="text;html=1;points=[];align=left;verticalAlign=top;spacingTop=-4;fontSize=14;fontFamily=Verdana" vertex="1" parent="ou7rN18NipHAHG5uuUOc-1">
          <mxGeometry x="860" y="425" width="170" height="20" as="geometry" />
        </mxCell>
      </root>
    </mxGraphModel>
  </diagram>
  <diagram name="Cadastros-Allan" id="wRbwQaZL5u7-sfdjsDPL">
    <mxGraphModel dx="1747" dy="1011" grid="1" gridSize="10" guides="1" tooltips="1" connect="1" arrows="1" fold="1" page="1" pageScale="1" pageWidth="1100" pageHeight="850" background="none" math="0" shadow="0">
      <root>
        <mxCell id="hQRXapxrfZH96c4mvfq0-0" />
        <mxCell id="hQRXapxrfZH96c4mvfq0-1" parent="hQRXapxrfZH96c4mvfq0-0" />
        <mxCell id="hQRXapxrfZH96c4mvfq0-2" value="" style="whiteSpace=wrap;html=1;rounded=0;shadow=0;labelBackgroundColor=none;strokeColor=#000000;strokeWidth=1;fillColor=none;fontFamily=Verdana;fontSize=12;fontColor=#000000;align=center;comic=1;" parent="hQRXapxrfZH96c4mvfq0-1" vertex="1">
          <mxGeometry x="20" y="20" width="1060" height="810" as="geometry" />
        </mxCell>
        <mxCell id="hQRXapxrfZH96c4mvfq0-3" value="LOGO" style="whiteSpace=wrap;html=1;rounded=0;shadow=0;labelBackgroundColor=none;strokeWidth=1;fontFamily=Verdana;fontSize=28;align=center;comic=1;" parent="hQRXapxrfZH96c4mvfq0-1" vertex="1">
          <mxGeometry x="30" y="40" width="145" height="50" as="geometry" />
        </mxCell>
        <mxCell id="hQRXapxrfZH96c4mvfq0-4" value="Search" style="strokeWidth=1;shadow=0;dashed=0;align=center;html=1;shape=mxgraph.mockup.forms.searchBox;strokeColor=#999999;mainText=;strokeColor2=#008cff;fontColor=#666666;fontSize=17;align=left;spacingLeft=3;rounded=0;labelBackgroundColor=none;comic=1;" parent="hQRXapxrfZH96c4mvfq0-1" vertex="1">
          <mxGeometry x="840" y="95" width="220" height="30" as="geometry" />
        </mxCell>
        <mxCell id="hQRXapxrfZH96c4mvfq0-5" value="Topic 1" style="text;html=1;points=[];align=left;verticalAlign=top;spacingTop=-4;fontSize=14;fontFamily=Verdana" parent="hQRXapxrfZH96c4mvfq0-1" vertex="1">
          <mxGeometry x="780" y="40" width="60" height="20" as="geometry" />
        </mxCell>
        <mxCell id="hQRXapxrfZH96c4mvfq0-6" value="Topic 2" style="text;html=1;points=[];align=left;verticalAlign=top;spacingTop=-4;fontSize=14;fontFamily=Verdana" parent="hQRXapxrfZH96c4mvfq0-1" vertex="1">
          <mxGeometry x="860" y="40" width="60" height="20" as="geometry" />
        </mxCell>
        <mxCell id="hQRXapxrfZH96c4mvfq0-7" value="Topic 3" style="text;html=1;points=[];align=left;verticalAlign=top;spacingTop=-4;fontSize=14;fontFamily=Verdana" parent="hQRXapxrfZH96c4mvfq0-1" vertex="1">
          <mxGeometry x="930" y="40" width="60" height="20" as="geometry" />
        </mxCell>
        <mxCell id="hQRXapxrfZH96c4mvfq0-8" value="Topic 4" style="text;html=1;points=[];align=left;verticalAlign=top;spacingTop=-4;fontSize=14;fontFamily=Verdana" parent="hQRXapxrfZH96c4mvfq0-1" vertex="1">
          <mxGeometry x="1000" y="40" width="60" height="20" as="geometry" />
        </mxCell>
        <mxCell id="hQRXapxrfZH96c4mvfq0-9" value="" style="whiteSpace=wrap;html=1;rounded=0;shadow=0;labelBackgroundColor=none;strokeWidth=1;fillColor=none;fontFamily=Verdana;fontSize=12;align=center;comic=1;" parent="hQRXapxrfZH96c4mvfq0-1" vertex="1">
          <mxGeometry x="30" y="230" width="200" height="590" as="geometry" />
        </mxCell>
        <mxCell id="hQRXapxrfZH96c4mvfq0-10" value="" style="line;strokeWidth=1;html=1;rounded=0;shadow=0;labelBackgroundColor=none;fillColor=none;fontFamily=Verdana;fontSize=14;fontColor=#000000;align=center;comic=1;" parent="hQRXapxrfZH96c4mvfq0-1" vertex="1">
          <mxGeometry x="20" y="140" width="1060" height="10" as="geometry" />
        </mxCell>
        <mxCell id="hQRXapxrfZH96c4mvfq0-11" value="" style="whiteSpace=wrap;html=1;rounded=0;shadow=0;labelBackgroundColor=none;strokeWidth=1;fillColor=none;fontFamily=Verdana;fontSize=12;align=center;comic=1;" parent="hQRXapxrfZH96c4mvfq0-1" vertex="1">
          <mxGeometry x="30" y="160" width="1040" height="50" as="geometry" />
        </mxCell>
        <mxCell id="hQRXapxrfZH96c4mvfq0-12" value="Section 1" style="text;html=1;points=[];align=left;verticalAlign=top;spacingTop=-4;fontSize=14;fontFamily=Verdana" parent="hQRXapxrfZH96c4mvfq0-1" vertex="1">
          <mxGeometry x="330" y="175" width="60" height="20" as="geometry" />
        </mxCell>
        <mxCell id="hQRXapxrfZH96c4mvfq0-13" value="Section 2" style="text;html=1;points=[];align=left;verticalAlign=top;spacingTop=-4;fontSize=14;fontFamily=Verdana" parent="hQRXapxrfZH96c4mvfq0-1" vertex="1">
          <mxGeometry x="477" y="175" width="60" height="20" as="geometry" />
        </mxCell>
        <mxCell id="hQRXapxrfZH96c4mvfq0-14" value="Section 3" style="text;html=1;points=[];align=left;verticalAlign=top;spacingTop=-4;fontSize=14;fontFamily=Verdana" parent="hQRXapxrfZH96c4mvfq0-1" vertex="1">
          <mxGeometry x="623" y="175" width="60" height="20" as="geometry" />
        </mxCell>
        <mxCell id="hQRXapxrfZH96c4mvfq0-15" value="Section 4" style="text;html=1;points=[];align=left;verticalAlign=top;spacingTop=-4;fontSize=14;fontFamily=Verdana" parent="hQRXapxrfZH96c4mvfq0-1" vertex="1">
          <mxGeometry x="770" y="175" width="60" height="20" as="geometry" />
        </mxCell>
        <mxCell id="hQRXapxrfZH96c4mvfq0-16" value="&lt;div style=&quot;text-align: justify&quot;&gt;&lt;span&gt;Lorem ipsum dolor sit amet, consectetur adipisicing elit, sed do eiusmod tempor incididunt ut labore et dolore magna aliqua. Ut enim ad minim veniam, quis nostrud exercitation ullamco laboris nisi ut aliquip ex ea commodo consequat. Duis aute irure dolor in reprehenderit in voluptate velit esse cillum dolore eu fugiat nulla pariatur. Excepteur sint occaecat cupidatat non proident, sunt in culpa qui officia deserunt mollit anim id est laborum.&lt;/span&gt;&lt;/div&gt;&lt;div style=&quot;text-align: justify&quot;&gt;&lt;span&gt;Sed ut perspiciatis unde omnis iste natus error sit voluptatem accusantium doloremque laudantium, totam rem aperiam, eaque ipsa quae ab illo inventore veritatis et quasi architecto beatae vitae dicta sunt explicabo. Nemo enim ipsam voluptatem quia voluptas sit aspernatur aut odit aut fugit, sed quia consequuntur magni dolores eos qui ratione voluptatem sequi nesciunt.&amp;nbsp;&lt;/span&gt;&lt;/div&gt;" style="whiteSpace=wrap;html=1;rounded=0;shadow=0;labelBackgroundColor=none;strokeWidth=1;fillColor=none;fontFamily=Verdana;fontSize=12;align=center;verticalAlign=top;spacing=10;comic=1;" parent="hQRXapxrfZH96c4mvfq0-1" vertex="1">
          <mxGeometry x="250" y="640" width="580" height="180" as="geometry" />
        </mxCell>
        <mxCell id="hQRXapxrfZH96c4mvfq0-17" value="" style="verticalLabelPosition=bottom;shadow=0;dashed=0;align=center;html=1;verticalAlign=top;strokeWidth=1;shape=mxgraph.mockup.graphics.simpleIcon;strokeColor=#999999;rounded=0;labelBackgroundColor=none;fontFamily=Verdana;fontSize=14;fontColor=#000000;comic=1;" parent="hQRXapxrfZH96c4mvfq0-1" vertex="1">
          <mxGeometry x="210" y="235" width="600" height="400" as="geometry" />
        </mxCell>
        <mxCell id="hQRXapxrfZH96c4mvfq0-18" value="" style="whiteSpace=wrap;html=1;rounded=0;shadow=0;labelBackgroundColor=none;strokeWidth=1;fillColor=none;fontFamily=Verdana;fontSize=12;align=center;comic=1;" parent="hQRXapxrfZH96c4mvfq0-1" vertex="1">
          <mxGeometry x="820" y="225" width="230" height="400" as="geometry" />
        </mxCell>
        <mxCell id="hQRXapxrfZH96c4mvfq0-19" value="" style="whiteSpace=wrap;html=1;rounded=0;shadow=0;labelBackgroundColor=none;strokeWidth=1;fillColor=none;fontFamily=Verdana;fontSize=12;align=center;comic=1;" parent="hQRXapxrfZH96c4mvfq0-1" vertex="1">
          <mxGeometry x="840" y="640" width="230" height="180" as="geometry" />
        </mxCell>
        <mxCell id="hQRXapxrfZH96c4mvfq0-20" value="Section 1" style="text;html=1;points=[];align=left;verticalAlign=top;spacingTop=-4;fontSize=14;fontFamily=Verdana" parent="hQRXapxrfZH96c4mvfq0-1" vertex="1">
          <mxGeometry x="40" y="250" width="170" height="20" as="geometry" />
        </mxCell>
        <mxCell id="hQRXapxrfZH96c4mvfq0-21" value="Section 2" style="text;html=1;points=[];align=left;verticalAlign=top;spacingTop=-4;fontSize=14;fontFamily=Verdana" parent="hQRXapxrfZH96c4mvfq0-1" vertex="1">
          <mxGeometry x="40" y="286" width="170" height="20" as="geometry" />
        </mxCell>
        <mxCell id="hQRXapxrfZH96c4mvfq0-22" value="Section 3" style="text;html=1;points=[];align=left;verticalAlign=top;spacingTop=-4;fontSize=14;fontFamily=Verdana" parent="hQRXapxrfZH96c4mvfq0-1" vertex="1">
          <mxGeometry x="40" y="321" width="170" height="20" as="geometry" />
        </mxCell>
        <mxCell id="hQRXapxrfZH96c4mvfq0-23" value="Section 4" style="text;html=1;points=[];align=left;verticalAlign=top;spacingTop=-4;fontSize=14;fontFamily=Verdana" parent="hQRXapxrfZH96c4mvfq0-1" vertex="1">
          <mxGeometry x="45" y="355" width="170" height="20" as="geometry" />
        </mxCell>
        <mxCell id="hQRXapxrfZH96c4mvfq0-24" value="Section 7" style="text;html=1;points=[];align=left;verticalAlign=top;spacingTop=-4;fontSize=14;fontFamily=Verdana" parent="hQRXapxrfZH96c4mvfq0-1" vertex="1">
          <mxGeometry x="40" y="464" width="170" height="20" as="geometry" />
        </mxCell>
        <mxCell id="hQRXapxrfZH96c4mvfq0-25" value="Section 8" style="text;html=1;points=[];align=left;verticalAlign=top;spacingTop=-4;fontSize=14;fontFamily=Verdana" parent="hQRXapxrfZH96c4mvfq0-1" vertex="1">
          <mxGeometry x="40" y="500" width="170" height="20" as="geometry" />
        </mxCell>
        <mxCell id="hQRXapxrfZH96c4mvfq0-26" value="Section 9" style="text;html=1;points=[];align=left;verticalAlign=top;spacingTop=-4;fontSize=14;fontFamily=Verdana" parent="hQRXapxrfZH96c4mvfq0-1" vertex="1">
          <mxGeometry x="40" y="536" width="170" height="20" as="geometry" />
        </mxCell>
        <mxCell id="hQRXapxrfZH96c4mvfq0-27" value="Section 10" style="text;html=1;points=[];align=left;verticalAlign=top;spacingTop=-4;fontSize=14;fontFamily=Verdana" parent="hQRXapxrfZH96c4mvfq0-1" vertex="1">
          <mxGeometry x="40" y="571" width="170" height="20" as="geometry" />
        </mxCell>
        <mxCell id="hQRXapxrfZH96c4mvfq0-28" value="Section 11" style="text;html=1;points=[];align=left;verticalAlign=top;spacingTop=-4;fontSize=14;fontFamily=Verdana" parent="hQRXapxrfZH96c4mvfq0-1" vertex="1">
          <mxGeometry x="40" y="607" width="170" height="20" as="geometry" />
        </mxCell>
        <mxCell id="hQRXapxrfZH96c4mvfq0-29" value="Section 12" style="text;html=1;points=[];align=left;verticalAlign=top;spacingTop=-4;fontSize=14;fontFamily=Verdana" parent="hQRXapxrfZH96c4mvfq0-1" vertex="1">
          <mxGeometry x="40" y="643" width="170" height="20" as="geometry" />
        </mxCell>
        <mxCell id="hQRXapxrfZH96c4mvfq0-30" value="Section 13" style="text;html=1;points=[];align=left;verticalAlign=top;spacingTop=-4;fontSize=14;fontFamily=Verdana" parent="hQRXapxrfZH96c4mvfq0-1" vertex="1">
          <mxGeometry x="40" y="679" width="170" height="20" as="geometry" />
        </mxCell>
        <mxCell id="hQRXapxrfZH96c4mvfq0-31" value="Section 14" style="text;html=1;points=[];align=left;verticalAlign=top;spacingTop=-4;fontSize=14;fontFamily=Verdana" parent="hQRXapxrfZH96c4mvfq0-1" vertex="1">
          <mxGeometry x="40" y="714" width="170" height="20" as="geometry" />
        </mxCell>
        <mxCell id="hQRXapxrfZH96c4mvfq0-32" value="Section 5" style="text;html=1;points=[];align=left;verticalAlign=top;spacingTop=-4;fontSize=14;fontFamily=Verdana" parent="hQRXapxrfZH96c4mvfq0-1" vertex="1">
          <mxGeometry x="40" y="393" width="170" height="20" as="geometry" />
        </mxCell>
        <mxCell id="hQRXapxrfZH96c4mvfq0-33" value="Section 6" style="text;html=1;points=[];align=left;verticalAlign=top;spacingTop=-4;fontSize=14;fontFamily=Verdana" parent="hQRXapxrfZH96c4mvfq0-1" vertex="1">
          <mxGeometry x="40" y="429" width="170" height="20" as="geometry" />
        </mxCell>
        <mxCell id="hQRXapxrfZH96c4mvfq0-34" value="Section 15" style="text;html=1;points=[];align=left;verticalAlign=top;spacingTop=-4;fontSize=14;fontFamily=Verdana" parent="hQRXapxrfZH96c4mvfq0-1" vertex="1">
          <mxGeometry x="40" y="750" width="170" height="20" as="geometry" />
        </mxCell>
        <mxCell id="hQRXapxrfZH96c4mvfq0-35" value="External Links" style="text;html=1;points=[];align=left;verticalAlign=top;spacingTop=-4;fontSize=14;fontFamily=Verdana" parent="hQRXapxrfZH96c4mvfq0-1" vertex="1">
          <mxGeometry x="860" y="653" width="170" height="20" as="geometry" />
        </mxCell>
        <mxCell id="hQRXapxrfZH96c4mvfq0-36" value="Feature 1" style="text;html=1;points=[];align=left;verticalAlign=top;spacingTop=-4;fontSize=14;fontFamily=Verdana" parent="hQRXapxrfZH96c4mvfq0-1" vertex="1">
          <mxGeometry x="860" y="250" width="170" height="20" as="geometry" />
        </mxCell>
        <mxCell id="hQRXapxrfZH96c4mvfq0-37" value="Feature 2" style="text;html=1;points=[];align=left;verticalAlign=top;spacingTop=-4;fontSize=14;fontFamily=Verdana" parent="hQRXapxrfZH96c4mvfq0-1" vertex="1">
          <mxGeometry x="860" y="285" width="170" height="20" as="geometry" />
        </mxCell>
        <mxCell id="hQRXapxrfZH96c4mvfq0-38" value="Feature 3" style="text;html=1;points=[];align=left;verticalAlign=top;spacingTop=-4;fontSize=14;fontFamily=Verdana" parent="hQRXapxrfZH96c4mvfq0-1" vertex="1">
          <mxGeometry x="860" y="320" width="170" height="20" as="geometry" />
        </mxCell>
        <mxCell id="hQRXapxrfZH96c4mvfq0-39" value="Feature 4" style="text;html=1;points=[];align=left;verticalAlign=top;spacingTop=-4;fontSize=14;fontFamily=Verdana" parent="hQRXapxrfZH96c4mvfq0-1" vertex="1">
          <mxGeometry x="860" y="355" width="170" height="20" as="geometry" />
        </mxCell>
        <mxCell id="hQRXapxrfZH96c4mvfq0-40" value="Feature 5" style="text;html=1;points=[];align=left;verticalAlign=top;spacingTop=-4;fontSize=14;fontFamily=Verdana" parent="hQRXapxrfZH96c4mvfq0-1" vertex="1">
          <mxGeometry x="860" y="390" width="170" height="20" as="geometry" />
        </mxCell>
        <mxCell id="hQRXapxrfZH96c4mvfq0-41" value="Feature 6" style="text;html=1;points=[];align=left;verticalAlign=top;spacingTop=-4;fontSize=14;fontFamily=Verdana" parent="hQRXapxrfZH96c4mvfq0-1" vertex="1">
          <mxGeometry x="860" y="425" width="170" height="20" as="geometry" />
        </mxCell>
        <mxCell id="aPNzOLO-_pkieD0tQvoz-0" value="" style="whiteSpace=wrap;html=1;rounded=0;shadow=0;labelBackgroundColor=none;strokeColor=#000000;strokeWidth=1;fillColor=none;fontFamily=Verdana;fontSize=12;fontColor=#000000;align=center;comic=1;" vertex="1" parent="hQRXapxrfZH96c4mvfq0-1">
          <mxGeometry x="1110" width="1100" height="820" as="geometry" />
        </mxCell>
      </root>
    </mxGraphModel>
  </diagram>
</mxfile>
